<?xml version="1.0" encoding="utf-8"?>
<!-- Generator: Adobe Illustrator 24.1.1, SVG Export Plug-In . SVG Version: 6.00 Build 0)  -->
<svg version="1.1" id="Layer_1" xmlns="http://www.w3.org/2000/svg" xmlns:xlink="http://www.w3.org/1999/xlink" x="0px" y="0px"
	 viewBox="0 0 22.3 29.8" style="enable-background:new 0 0 22.3 29.8;" xml:space="preserve">
<style type="text/css">
	.st0{fill:none;}
</style>
<polygon class="st0" points="8,9 9.6,8.3 9.6,6.4 14.8,4.2 14.8,1.6 0.9,7.3 0.9,10.1 6.3,8.1 6.3,21.3 9.6,22.8 9.6,12.8 8,13.5 
	"/>
<polygon points="9.6,22.8 6.3,21.3 6.3,8.1 0.9,10.1 0.9,7.3 14.8,1.6 14.8,4.2 9.6,6.4 9.6,8.3 10.7,7.9 10.7,7.4 15.9,5.2 15.9,0 
	0,6.6 0,11.6 5.2,9.6 5.2,29.8 10.7,29.8 10.7,12.4 9.6,12.8 "/>
<polygon points="10.7,7.9 10.7,8.9 21.3,4.5 21.2,6.9 16.6,8.8 16.6,23.5 13.7,22.2 13.7,10.3 10.7,11.4 10.7,12.4 12.6,11.7 
	12.6,29.8 17.6,29.8 17.6,9.7 22.3,7.7 22.3,3.1 "/>
<polygon points="9.6,11.8 9.6,12.8 10.7,12.4 10.7,11.4 "/>
<polygon points="9.6,9.3 10.7,8.9 10.7,7.9 9.6,8.3 "/>
<polygon points="13.7,10.3 13.7,22.2 16.6,23.5 16.6,8.8 21.2,6.9 21.3,4.5 10.7,8.9 10.7,11.4 "/>
</svg>
