<?xml version="1.0" encoding="utf-8"?>
<!-- Generator: Adobe Illustrator 24.1.1, SVG Export Plug-In . SVG Version: 6.00 Build 0)  -->
<svg version="1.1" id="Layer_1" xmlns="http://www.w3.org/2000/svg" xmlns:xlink="http://www.w3.org/1999/xlink" x="0px" y="0px"
	 viewBox="0 0 380 215" style="enable-background:new 0 0 380 215;" xml:space="preserve">
<style type="text/css">
	.st0{fill:#65C4EE;}
	.st1{fill:#383938;}
	.st2{fill:#1A1748;}
	.st3{fill:#EF4223;}
	.st4{fill:#CB3027;}
	.st5{fill:#FFCB05;}
	.st6{fill:#FBAC1B;}
	.st7{fill:#2FAAD5;}
	.st8{fill:#FFFFFF;}
	.st9{fill:#171717;}
	.st10{fill:#4E504F;}
	.st11{fill:#F2F2F2;}
	.st12{fill:#231F20;}
	.st13{fill:#F26534;}
	.st14{fill:#272626;}
	.st15{fill:#3E3E3E;}
	.st16{fill:#12A088;}
	.st17{fill:#1FB59F;}
	.st18{fill:#3CBDAD;}
	.st19{fill:#54C3BB;}
	.st20{fill:#F2BD50;}
	.st21{fill:#EDAB36;}
</style>
<g>
	<g>
		<path class="st0" d="M263.5,188c-9.5,5-31.5,7.4-54.7,10.8c-23.6,3.2-48.4,7.5-74.6,10.2c-26.2,2.7-51,2.1-74.6-2.7
			c-23.2-4.5-45.2-13.2-54.7-20.4c-9.5-7.6-2.6-10.8,21.1-13.7c23.2-2.7,63-5.3,108.2-7.3c45.2-2.1,85.1,0.3,108.2,5.6
			C266.1,175.6,273,183.4,263.5,188z"/>
	</g>
	<g>
		<g>
			<g>
				<g>
					<path class="st1" d="M64.8,167.5c0,4.7-3.8,8.4-8.4,8.4c-4.7,0-8.4-3.8-8.4-8.4c0-4.7,3.8-8.4,8.4-8.4
						C61.1,159.1,64.8,162.8,64.8,167.5z"/>
				</g>
			</g>
		</g>
		<g>
			<g>
				<g>
					<circle class="st1" cx="140.7" cy="167.5" r="8.4"/>
				</g>
			</g>
		</g>
		<g>
			<g>
				<g>
					<g>
						<rect x="75.4" y="33.6" class="st2" width="2.1" height="6.1"/>
					</g>
				</g>
			</g>
		</g>
		<g>
			<g>
				<g>
					<g>
						<rect x="119.4" y="33.6" class="st2" width="2.1" height="6.1"/>
					</g>
				</g>
			</g>
		</g>
		<g>
			<g>
				<g>
					<g>
						<g>
							<path class="st3" d="M123.7,31.8l-0.3,0.4l-0.1,0.2c-1,1.5-3,2.1-4.7,1.2c-3.9-2-11.3-5-20.2-5c-8.9,0-16.2,3-19.9,5
								c-1.6,0.8-3.7,0.3-4.7-1.2l-0.1-0.2l-0.2-0.3c-1.2-1.8-0.6-4.3,1.3-5.3c4.6-2.4,13.2-5.9,23.7-5.9c10.6,0,19.3,3.6,23.9,5.9
								C124.3,27.5,124.9,30,123.7,31.8z"/>
						</g>
					</g>
				</g>
			</g>
		</g>
		<g>
			<g>
				<g>
					<g>
						<g>
							<path class="st4" d="M123.4,32.2l-0.1,0.2c-1,1.5-3,2.1-4.7,1.2c-3.9-2-11.3-5-20.2-5c-8.9,0-16.2,3-19.9,5
								c-1.6,0.8-3.7,0.3-4.7-1.2l-0.1-0.2c0.3-0.3,0.7-0.6,1.1-0.9c4.6-2.4,13.2-5.9,23.7-5.9c10.6,0,19.3,3.6,23.9,5.9
								C122.8,31.6,123.1,31.9,123.4,32.2z"/>
						</g>
					</g>
				</g>
			</g>
		</g>
		<g>
			<g>
				<g>
					<path class="st5" d="M184.9,59.2v87.2c0,0.3,0,0.5,0,0.8c-0.2,4.8-1.9,9.2-4.7,12.8c-0.2,0.3-0.5,0.6-0.8,0.9
						c-0.2,0.3-0.5,0.5-0.7,0.8c-0.6,0.6-1.1,1.1-1.7,1.6c-0.7,0.5-1.4,1.1-2.1,1.5c-2.7,1.7-5.8,2.9-9.2,3.3
						c-0.9,0.1-1.8,0.2-2.7,0.2H32.7c-0.1,0-0.3,0-0.4,0c-4.6-0.1-8.9-1.6-12.4-4.1c-2.5-1.8-4.6-4-6.1-6.7c-1.1-1.9-2-3.9-2.5-6.1
						c-0.1-0.3-0.1-0.5-0.2-0.8c0-0.3-0.4-0.5-0.4-0.8c-0.1-0.7,0.1-1.4,0-2.2c0-0.3,0-0.6,0-0.9c0-0.1,0-0.3,0-0.4V59.2
						c0-7.3,3.6-13.8,9-17.7c3.6-2.6,8.1-4.2,12.9-4.2H163C175.1,37.2,184.9,47,184.9,59.2z"/>
				</g>
			</g>
		</g>
		<g>
			<g>
				<path class="st6" d="M184.9,59.2v87.2c0,0.3,0,0.5,0,0.8c-0.2,4.8-1.9,9.2-4.7,12.8c-0.2,0.3-0.5,0.6-0.8,0.9
					c-0.2,0.3-0.5,0.5-0.7,0.8c-0.6,0.6-1.1,1.1-1.7,1.6c-0.7,0.5-1.4,1.1-2.1,1.5c-2.7,1.7-5.8,2.9-9.2,3.3
					c-0.9,0.1-1.8,0.2-2.7,0.2H98.6v-131H163C175.1,37.2,184.9,47,184.9,59.2z"/>
			</g>
		</g>
		<g>
			<g>
				<g>
					<path class="st4" d="M184.9,147.1L184.9,147.1c-0.2,4.8-1.9,9.2-4.7,12.8c-0.2,0.3-0.5,0.6-0.8,0.9c-0.2,0.3-0.5,0.5-0.7,0.8
						c-0.6,0.6-1.1,1.1-1.7,1.6c-0.7,0.5-1.4,1.1-2.1,1.5c-2.7,1.7-5.8,2.9-9.2,3.3v-1.7C165.6,155.7,174.2,147.1,184.9,147.1z"/>
				</g>
			</g>
		</g>
		<g>
			<g>
				<g>
					<path class="st4" d="M184.9,58.2L184.9,58.2c-0.2-4.8-1.9-9.2-4.7-12.8c-0.2-0.3-0.5-0.6-0.8-0.9c-0.2-0.3-0.5-0.5-0.7-0.8
						c-0.6-0.6-1.1-1.1-1.7-1.6c-0.7-0.5-1.4-1.1-2.1-1.5c-2.7-1.7-5.8-2.9-9.2-3.3v1.7C165.6,49.6,174.2,58.2,184.9,58.2z"/>
				</g>
			</g>
		</g>
		<g>
			<g>
				<g>
					<path class="st3" d="M10.7,58.2L10.7,58.2c0.2-4.8,1.9-9.2,4.7-12.8c0.2-0.3,0.5-0.6,0.8-0.9c0.2-0.3,0.5-0.5,0.7-0.8
						c0.6-0.6,1.1-1.1,1.7-1.6c0.7-0.5,1.4-1.1,2.1-1.5c2.7-1.7,5.8-2.9,9.2-3.3v1.7C30,49.6,21.4,58.2,10.7,58.2z"/>
				</g>
			</g>
		</g>
		<g>
			<g>
				<g>
					<path class="st3" d="M10.7,147.1L10.7,147.1c0.2,4.8,1.9,9.2,4.7,12.8c0.2,0.3,0.5,0.6,0.8,0.9c0.2,0.3,0.5,0.5,0.7,0.8
						c0.6,0.6,1.1,1.1,1.7,1.6c0.7,0.5,1.4,1.1,2.1,1.5c2.7,1.7,5.8,2.9,9.2,3.3v-1.7C30,155.7,21.4,147.1,10.7,147.1z"/>
				</g>
			</g>
		</g>
		<g>
			<g>
				<g>
					
						<rect x="14.2" y="66.5" transform="matrix(-1.836970e-16 1 -1 -1.836970e-16 120.3302 23.0765)" class="st0" width="68.9" height="10.4"/>
				</g>
			</g>
		</g>
		<g>
			<g>
				<g>
					
						<rect x="16.1" y="130.3" transform="matrix(-1.836970e-16 1 -1 -1.836970e-16 184.1252 86.8715)" class="st7" width="65.2" height="10.4"/>
				</g>
			</g>
		</g>
		<g>
			<g>
				<g>
					<polygon class="st0" points="43.4,107.3 43.4,63.1 53.8,63.1 53.8,107.3 48.6,113.4 					"/>
				</g>
			</g>
		</g>
		<g>
			<g>
				<g>
					<path class="st1" d="M41.4,96.8V79.5c0-0.3,0.3-0.6,0.6-0.6h12.8c0.3,0,0.6,0.3,0.6,0.6v17.3c0,0.3-0.3,0.6-0.6,0.6H42
						C41.7,97.4,41.4,97.1,41.4,96.8z"/>
				</g>
			</g>
		</g>
		<g>
			<g>
				<g>
					
						<rect x="114.7" y="66.5" transform="matrix(-1.836970e-16 1 -1 -1.836970e-16 220.8437 -77.4371)" class="st0" width="68.9" height="10.4"/>
				</g>
			</g>
		</g>
		<g>
			<g>
				<g>
					
						<rect x="116.6" y="130.3" transform="matrix(-1.836970e-16 1 -1 -1.836970e-16 284.6387 -13.6421)" class="st7" width="65.2" height="10.4"/>
				</g>
			</g>
		</g>
		<g>
			<g>
				<g>
					<polygon class="st0" points="143.9,107.3 143.9,63.1 154.3,63.1 154.3,107.3 149.1,113.4 					"/>
				</g>
			</g>
		</g>
		<g>
			<g>
				<g>
					<path class="st1" d="M141.9,96.8V79.5c0-0.3,0.3-0.6,0.6-0.6h12.8c0.3,0,0.6,0.3,0.6,0.6v17.3c0,0.3-0.3,0.6-0.6,0.6h-12.8
						C142.2,97.4,141.9,97.1,141.9,96.8z"/>
				</g>
			</g>
		</g>
		<g>
			<g>
				<g>
					<path class="st8" d="M119.7,102.2c0.1-0.3-0.1-0.7-0.2-1c-0.3-0.8,0.1-1.1,0.6-1.6c0.9-0.9,0-2.4-1.2-2.4c-0.4,0-0.7,0.5-1,0.5
						c-0.7,0-0.9-0.9-1.6-1.1c-0.7-0.2-1.3,0.7-1.9,0.4c-0.2-0.1-0.3-0.3-0.4-0.5c-0.5-0.6-1.4-0.8-2-0.4c-0.1,0.1-0.3,0.2-0.4,0.2
						c-0.6,0.1-0.9-1-1.5-1.1c-0.5-0.1-1,0.5-1.6,0.5c-0.7,0-1.1-1-1.8-1.1c-0.6-0.1-1.3,0.6-1.8,0.3c-0.2-0.1-0.2-0.3-0.4-0.5
						c-0.3-0.4-0.9-0.6-1.4-0.4c-0.3,0.1-0.6,0.4-0.9,0.3c-0.3,0-0.5-0.3-0.7-0.6c-0.9-1.1-3,0.1-2.3,1.5c0.1,0.2,0.2,0.3,0.3,0.5
						c0.1,0.6-0.6,1-0.9,1.5c-0.2,0.4-0.3,0.9,0,1.3c0.2,0.3,0.4,0.6,0.4,0.9c-0.1,0.4-0.5,0.4-0.8,0.7c-0.3,0.2-0.4,0.7-0.3,1.1
						c0.1,0.4,0.2,0.7,0.4,1.1c0.1,0.1,0.1,0.3,0.1,0.4c-0.1,0.3-0.4,0.4-0.6,0.6c-1.3,0.9,0.4,1.8-0.2,2.8
						c-0.1,0.1-0.4,0.2-0.5,0.3c-1.5,1.6,0.8,3.7,2.2,1.9c0.3,0.2,0.5,0.6,0.7,0.9c1,1.3,2-0.7,2.7,0.3c0.2,0.3,0.4,0.6,0.7,0.7
						c0.9,0.6,1.1-0.5,1.9-0.4c0.7,0.1,0.6,1.1,1.6,1.3c0.9,0.2,1.3-0.7,2-0.5c0.3,0.1,0.5,1,1.1,1.2c0.5,0.1,0.8-0.2,1.2-0.3
						c0.7-0.2,0.1-0.5,0.7-0.2c0.2,0.1,0.4,0.8,0.7,1c1,0.6,1.5-0.4,2.3-0.5c-0.2,0,0.4,0.9,0.5,1c0.3,0.2,0.6,0.4,1,0.4
						c0.9,0,1.7-0.9,1.3-1.7c-0.1-0.3-0.3-0.6-0.3-1c0.1-0.6,0.9-0.9,1.1-1.6c0.2-0.7-0.5-1.4-0.3-2c0.2-0.5,1-0.8,1-1.3
						c0-0.2-0.1-0.4-0.2-0.7c-0.2-0.4-0.1-1,0.2-1.4C119.1,102.9,119.5,102.4,119.7,102.2C119.7,102.2,119.7,102.2,119.7,102.2z"/>
				</g>
			</g>
			<g>
				<g>
					
						<rect x="102.5" y="93.8" transform="matrix(0.2141 -0.9768 0.9768 0.2141 -15.4526 186.6852)" class="st0" width="11.5" height="18.2"/>
				</g>
			</g>
		</g>
		<g>
			<g>
				<g>
					<path class="st8" d="M86.5,57.7c-0.1-0.3-0.3-0.5-0.5-0.7c-0.5-0.5-0.4-0.8-0.2-1.4c0.3-1-0.9-1.8-1.8-1.3
						c-0.3,0.2-0.4,0.6-0.6,0.7c-0.5,0.3-1-0.3-1.6-0.2c-0.6,0.1-0.7,1-1.3,1c-0.2,0-0.3-0.1-0.5-0.2c-0.6-0.3-1.3,0-1.6,0.5
						c-0.1,0.1-0.1,0.2-0.2,0.3c-0.4,0.3-1-0.4-1.5-0.3c-0.5,0.1-0.6,0.7-1,0.9c-0.5,0.3-1.2-0.4-1.8-0.1c-0.5,0.2-0.7,1-1.2,0.9
						c-0.2,0-0.3-0.2-0.5-0.2c-0.4-0.2-0.9-0.1-1.2,0.2c-0.2,0.2-0.3,0.5-0.5,0.6c-0.3,0.1-0.5,0-0.8-0.2c-1.1-0.5-2.2,1.2-1.2,2
						c0.1,0.1,0.3,0.2,0.4,0.3c0.3,0.4-0.1,0.9-0.1,1.4c0,0.4,0.1,0.8,0.5,1c0.2,0.1,0.5,0.2,0.6,0.5c0.1,0.3-0.2,0.5-0.3,0.8
						c-0.1,0.3,0,0.6,0.2,0.9c0.2,0.3,0.4,0.5,0.7,0.7c0.1,0.1,0.2,0.2,0.2,0.3c0.1,0.2-0.1,0.5-0.3,0.7c-0.7,1.2,1,1.2,0.9,2.1
						c0,0.1-0.3,0.3-0.3,0.4c-0.5,1.7,2,2.4,2.4,0.6c0.3,0,0.6,0.2,0.9,0.4c1.2,0.6,1.2-1.2,2.1-0.8c0.3,0.1,0.5,0.3,0.8,0.3
						c0.9,0.1,0.6-0.8,1.2-1c0.6-0.2,0.9,0.6,1.6,0.4c0.8-0.2,0.7-1,1.3-1.1c0.3,0,0.7,0.6,1.3,0.5c0.4-0.1,0.5-0.4,0.8-0.7
						c0.4-0.4-0.1-0.4,0.5-0.4c0.2,0,0.6,0.5,0.9,0.5c1,0,1-0.9,1.5-1.3c-0.1,0.1,0.6,0.5,0.7,0.5c0.3,0.1,0.6,0,0.9-0.1
						c0.7-0.3,0.9-1.3,0.3-1.8c-0.2-0.2-0.5-0.3-0.6-0.6c-0.2-0.5,0.3-1.1,0.2-1.6c-0.1-0.6-0.9-0.8-1-1.4c0-0.5,0.4-0.9,0.2-1.4
						c-0.1-0.2-0.3-0.3-0.4-0.4c-0.3-0.3-0.4-0.7-0.4-1.1C86.3,58.5,86.4,58,86.5,57.7C86.5,57.7,86.5,57.7,86.5,57.7z"/>
				</g>
			</g>
			<g>
				<g>
					
						<rect x="70.7" y="57.9" transform="matrix(0.9671 -0.2543 0.2543 0.9671 -13.3599 21.9645)" class="st3" width="15.2" height="9.6"/>
				</g>
			</g>
		</g>
	</g>
	<g>
		<g>
			<path class="st3" d="M143.3,175.9c-1.2-4.5,0.7-9.7-1.8-13.9c-1.8-3-5.7-5.3-9-3.2c-1.5,0.9-0.1,3.3,1.4,2.4
				c1.4-0.8,2.9-0.3,4,0.7c1.6,1.4,2.1,3.2,2.3,5.3c0.3,3.8-0.3,7.5,1.1,11.2c2.2,5.9,7.8,11.4,7.1,18c-0.9,7.8-8.9,11.8-15.7,13.2
				c-8.6,1.7-17.8,1.7-26.5,1.2c-8.8-0.4-17.5-2.2-26.3-2.8c-8.6-0.6-16.7,1.2-25.1,2.9c-7.6,1.5-16.9,3.1-23.9-1.3
				c-3-1.8-5.4-5-5.7-8.6c-0.3-3.4,1.5-6.4,4-8.7c6.1-5.7,15.2-6.2,21.8-11.1c6.1-4.5,9.4-12.3,8.4-19.9c-0.2-1.7-3-1.7-2.7,0
				c1,8-3,15.6-10.1,19.4c-6.8,3.7-14.9,4.7-20.3,10.6c-2.3,2.5-3.9,5.7-3.8,9.2c0.1,3.6,1.9,7,4.6,9.5c6.2,5.7,15.5,5.5,23.3,4.4
				c9.4-1.4,18.3-4.2,27.9-3.8c9.6,0.4,19.1,2.5,28.7,2.9c4.8,0.2,9.7,0.2,14.5-0.1c4.4-0.2,8.9-0.6,13.2-1.5
				c7.2-1.6,14.7-6.1,16.4-13.9C152.6,189.4,145.3,183.6,143.3,175.9z"/>
		</g>
		<g>
			<g>
				<path class="st1" d="M115.1,161.3H72.8l1.9-13.6c0.5-3.7,3.7-6.5,7.4-6.5h23.8c3.7,0,6.9,2.8,7.4,6.5L115.1,161.3z"/>
			</g>
			<g>
				<path class="st9" d="M115.1,161.3H94.5v-20h11.4c3.7,0,6.9,2.8,7.4,6.5L115.1,161.3z"/>
			</g>
			<g>
				<path class="st1" d="M134.6,161v27.9c0,6.7-5.5,12.2-12.2,12.2H66.1c-6.7,0-12.2-5.5-12.2-12.2V161c0-6.7,5.5-12.2,12.2-12.2
					h56.3C129.1,148.8,134.6,154.3,134.6,161z"/>
			</g>
			<g>
				<path class="st10" d="M94.5,148.8v52.3H66.1c-6.7,0-12.2-5.5-12.2-12.2V161c0-6.7,5.5-12.2,12.2-12.2H94.5z"/>
			</g>
			<g>
				<path class="st6" d="M110.2,174.9c0,8.7-7,15.7-15.7,15.7c-8.7,0-15.7-7-15.7-15.7c0-8.7,7-15.7,15.7-15.7
					C103.2,159.2,110.2,166.3,110.2,174.9z"/>
			</g>
			<g>
				<path class="st5" d="M94.5,159.2v31.4c-8.7,0-15.7-7-15.7-15.7C78.8,166.3,85.8,159.2,94.5,159.2z"/>
			</g>
			<g>
				<circle class="st1" cx="94.5" cy="174.9" r="9.9"/>
			</g>
			<g>
				<rect x="117.9" y="154.2" class="st3" width="7.4" height="3.4"/>
			</g>
			<g>
				<path class="st11" d="M65.2,157c0,1.4-1.1,2.5-2.5,2.5s-2.5-1.1-2.5-2.5c0-1.4,1.1-2.5,2.5-2.5S65.2,155.7,65.2,157z"/>
			</g>
			<g>
				<path class="st11" d="M62.4,170.9L62.4,170.9c-1.2,0-2.1-0.9-2.1-2.1v-3.4c0-1.2,0.9-2.1,2.1-2.1l0,0c1.2,0,2.1,0.9,2.1,2.1v3.4
					C64.5,169.9,63.6,170.9,62.4,170.9z"/>
			</g>
		</g>
	</g>
</g>
<g>
	<g>
		<path class="st0" d="M372.8,194.7c-8.5,4.5-28.2,6.6-48.9,9.7c-21.2,2.9-43.4,6.7-66.8,9.1c-23.5,2.4-45.7,1.8-66.8-2.5
			c-20.7-4.1-40.5-11.8-48.9-18.2c-8.5-6.8-2.3-9.6,18.9-12.3c20.7-2.5,56.4-4.7,96.9-6.6c40.5-1.9,76.2,0.3,96.9,5
			C375.1,183.6,381.3,190.7,372.8,194.7z"/>
	</g>
	<g>
		<g>
			<polygon class="st5" points="326.6,42.1 326.6,67.3 283,67.3 269.7,54.7 283,42.1 			"/>
		</g>
		<g>
			<polygon class="st6" points="326.6,54.7 326.6,67.3 283,67.3 269.7,54.7 			"/>
		</g>
		<g>
			<path class="st8" d="M324.9,184.2V2.7V184.2z"/>
			<path class="st12" d="M324.9,187c-1.5,0-2.7-1.2-2.7-2.7V2.7c0-1.5,1.2-2.7,2.7-2.7s2.7,1.2,2.7,2.7v181.5
				C327.6,185.8,326.4,187,324.9,187z"/>
		</g>
		<g>
			<polygon class="st13" points="379.1,20.4 365.8,33 322.1,33 322.1,7.8 365.8,7.8 			"/>
		</g>
		<g>
			<polygon class="st3" points="379.1,20.4 365.8,33 322.1,33 322.1,20.4 			"/>
		</g>
	</g>
	<g>
		<path class="st14" d="M313.9,168.1v21.2c0,3.6-2.9,6.5-6.5,6.5H165.3c-3.6,0-6.5-2.9-6.5-6.5v-21.2H313.9z"/>
	</g>
	<g>
		<path class="st1" d="M236.4,168.1v27.7h-71.1c-3.6,0-6.5-2.9-6.5-6.5v-21.2H236.4z"/>
	</g>
	<g>
		<path class="st15" d="M313.9,156.4v16.8H158.8v-16.8c0-3.6,2.9-6.5,6.5-6.5h142.2C311,149.9,313.9,152.8,313.9,156.4z"/>
	</g>
	<g>
		<path class="st10" d="M236.4,149.9v23.3h-77.6v-16.8c0-3.6,2.9-6.5,6.5-6.5H236.4z"/>
	</g>
	<g>
		<path class="st5" d="M168.8,149.9c-2.8,5.9-7.1,8.3-10,9.2v-2.8c0-3.6,2.9-6.5,6.5-6.5H168.8z"/>
	</g>
	<g>
		<path class="st5" d="M168.8,195.7c-2.8-5.9-7.1-8.3-10-9.2v2.8c0,3.6,2.9,6.5,6.5,6.5H168.8z"/>
	</g>
	<g>
		<path class="st6" d="M304,149.9c2.8,5.9,7.1,8.3,10,9.2v-2.8c0-3.6-2.9-6.5-6.5-6.5H304z"/>
	</g>
	<g>
		<path class="st6" d="M304,195.7c2.8-5.9,7.1-8.3,10-9.2v2.8c0,3.6-2.9,6.5-6.5,6.5H304z"/>
	</g>
	<g>
		<rect x="218.5" y="175.1" class="st13" width="5.4" height="3.3"/>
	</g>
	<g>
		<rect x="249.3" y="175.1" class="st13" width="5.4" height="3.3"/>
	</g>
	<g>
		<path class="st3" d="M247.5,189h-21.8c-3,0-5.4-2.4-5.4-5.4v-6.9h1.9v6.9c0,1.9,1.6,3.5,3.5,3.5h21.8c1.9,0,3.5-1.6,3.5-3.5v-6.9
			h1.9v6.9C252.9,186.6,250.5,189,247.5,189z"/>
	</g>
	<g>
		<path class="st13" d="M189,180L189,180c-1.4,0-2.5-1.1-2.5-2.5v-10.7c0-1.4,1.1-2.5,2.5-2.5l0,0c1.4,0,2.5,1.1,2.5,2.5v10.7
			C191.5,178.9,190.4,180,189,180z"/>
	</g>
	<g>
		<path class="st3" d="M283.4,180L283.4,180c-1.4,0-2.5-1.1-2.5-2.5v-10.7c0-1.4,1.1-2.5,2.5-2.5l0,0c1.4,0,2.5,1.1,2.5,2.5v10.7
			C285.8,178.9,284.7,180,283.4,180z"/>
	</g>
	<g>
		<path class="st16" d="M309.1,124.7v20.4c0,3-2.4,5.4-5.4,5.4H185.5c-3,0-5.4-2.4-5.4-5.4v-20.4H309.1z"/>
	</g>
	<g>
		<path class="st17" d="M244.6,124.7v25.8h-59.1c-3,0-5.4-2.4-5.4-5.4v-20.4H244.6z"/>
	</g>
	<g>
		<path class="st18" d="M313.9,117.4v5.8c0,1.4-1.1,2.5-2.5,2.5H175.3v-8.3c0-3.2,2.6-5.8,5.8-5.8h127.1
			C311.4,111.6,313.9,114.2,313.9,117.4z"/>
	</g>
	<g>
		<path class="st19" d="M244.6,111.6v14.1h-66.8c-1.4,0-2.5-1.1-2.5-2.5v-5.8c0-3.2,2.6-5.8,5.8-5.8H244.6z"/>
	</g>
	<g>
		<rect x="223.8" y="132" class="st13" width="6.3" height="7.8"/>
	</g>
	<g>
		<rect x="259.7" y="132" class="st13" width="6.3" height="7.8"/>
	</g>
	<g>
		<g>
			<g>
				
					<rect x="191.4" y="139.2" transform="matrix(-1.836970e-16 1 -1 -1.836970e-16 342.1864 -58.1903)" class="st3" width="17.7" height="5.6"/>
			</g>
		</g>
	</g>
	<g>
		<g>
			<g>
				<polygon class="st13" points="197.4,135.6 197.4,111.6 203,111.6 203,135.6 200.2,138.8 				"/>
			</g>
		</g>
	</g>
	<g>
		<g>
			<g>
				<path class="st1" d="M196.3,129.8v-9.3c0-0.2,0.2-0.3,0.3-0.3h6.9c0.2,0,0.3,0.2,0.3,0.3v9.3c0,0.2-0.2,0.3-0.3,0.3h-6.9
					C196.4,130.2,196.3,130,196.3,129.8z"/>
			</g>
		</g>
	</g>
	<g>
		<g>
			<g>
				
					<rect x="281.5" y="139.2" transform="matrix(-1.836970e-16 1 -1 -1.836970e-16 432.3649 -148.3688)" class="st3" width="17.7" height="5.6"/>
			</g>
		</g>
	</g>
	<g>
		<g>
			<g>
				<polygon class="st13" points="287.5,135.6 287.5,111.6 293.2,111.6 293.2,135.6 290.4,138.8 				"/>
			</g>
		</g>
	</g>
	<g>
		<g>
			<g>
				<path class="st14" d="M286.5,129.8v-9.3c0-0.2,0.2-0.3,0.3-0.3h6.9c0.2,0,0.3,0.2,0.3,0.3v9.3c0,0.2-0.2,0.3-0.3,0.3h-6.9
					C286.6,130.2,286.5,130,286.5,129.8z"/>
			</g>
		</g>
	</g>
	<g>
		<rect x="226.4" y="133.5" class="st6" width="36.6" height="4.5"/>
	</g>
	<g>
		<g>
			<g>
				<g>
					<path class="st14" d="M216.4,71.8c-0.8,0-1.4-0.8-1.4-1.9c0-1.1,0.6-1.9,1.4-1.9c0.8,0,1.4,0.8,1.4,1.9
						C217.7,70.9,217.1,71.8,216.4,71.8z M216.4,68.7c-0.3,0-0.6,0.5-0.6,1.1c0,0.7,0.3,1.1,0.6,1.1c0.3,0,0.6-0.5,0.6-1.1
						C217,69.2,216.7,68.7,216.4,68.7z"/>
				</g>
			</g>
		</g>
		<g>
			<g>
				<g>
					<path class="st14" d="M234.8,71.8c-0.8,0-1.4-0.8-1.4-1.9c0-1.1,0.6-1.9,1.4-1.9c0.8,0,1.4,0.8,1.4,1.9
						C236.1,70.9,235.5,71.8,234.8,71.8z M234.8,68.7c-0.3,0-0.6,0.5-0.6,1.1c0,0.7,0.3,1.1,0.6,1.1c0.3,0,0.6-0.5,0.6-1.1
						C235.4,69.2,235.1,68.7,234.8,68.7z"/>
				</g>
			</g>
		</g>
		<g>
			<g>
				<g>
					<g>
						<path class="st13" d="M235.5,68.7C235.5,68.7,235.5,68.7,235.5,68.7c-0.2,0.4-0.5,0.6-0.9,0.6c-0.2,0-0.4-0.1-0.5-0.2
							c-4.1-3.1-8.2-4-12.2-2.8c-3,0.9-4.8,2.7-4.8,2.7c-0.4,0.4-1.1,0.4-1.4-0.2c0,0,0-0.1-0.1-0.1c-0.3-0.5-0.2-1.2,0.2-1.7
							c0.1-0.1,2.2-2.2,5.6-3.2c3.2-1,8.1-1.2,13.8,3.1C235.6,67.4,235.8,68.1,235.5,68.7z"/>
					</g>
				</g>
			</g>
		</g>
		<g>
			<g>
				<g>
					<g>
						<path class="st3" d="M235.5,68.7c-0.2,0.4-0.5,0.6-0.9,0.6c-0.2,0-0.4-0.1-0.5-0.2c-4.1-3.1-8.2-4-12.2-2.8
							c-3,0.9-4.8,2.7-4.8,2.7c-0.4,0.4-1.1,0.4-1.4-0.2c0,0,0-0.1-0.1-0.1c0.1-0.1,0.1-0.2,0.2-0.3c0.1-0.1,2.2-2.2,5.6-3.2
							c3.2-1,8.1-1.2,13.8,3.1C235.3,68.5,235.4,68.6,235.5,68.7z"/>
					</g>
				</g>
			</g>
		</g>
		<g>
			<g>
				<path class="st20" d="M225.5,71.1v40.4h-28.7c-0.3,0-0.6,0-0.9-0.1c-2.6-0.4-4.6-2.7-4.6-5.5V95.8c0-4.8,2-9.3,5.2-13.1
					c5.9-7,15.7-11.6,24.5-11.6H225.5z"/>
			</g>
		</g>
		<g>
			<g>
				<path class="st21" d="M225.6,71.1h4.5c13.7,0,29.8,11.1,29.8,24.7v10.1c0,3.1-2.5,5.6-5.6,5.6h-28.7V71.1z"/>
			</g>
		</g>
		<g>
			<g>
				<g>
					<g>
						<g>
							<path class="st1" d="M205.1,88.4h6.4l0,17.8h-8.3c-1.4,0-4-2.1-3.7-4.3l1.2-9.5C201,90.1,202.9,88.4,205.1,88.4z"/>
						</g>
					</g>
				</g>
			</g>
			<g>
				<g>
					<g>
						<g>
							<path class="st14" d="M218,88.4h-6.4l0,17.8h8.3c1.4,0,4-2.1,3.7-4.3l-1.2-9.5C222.2,90.1,220.3,88.4,218,88.4z"/>
						</g>
					</g>
				</g>
			</g>
			<g>
				<g>
					<g>
						<g>
							<path class="st13" d="M201.2,91.3c0.4,3.8,2.2,10.1,10.4,10.1c0-8.7,0-13,0-13h-7.8C202.3,88.4,201,89.7,201.2,91.3z"/>
						</g>
					</g>
				</g>
			</g>
			<g>
				<g>
					<g>
						<g>
							<path class="st3" d="M222,91.3c-0.4,3.8-2.2,10.1-10.4,10.1c0-8.7,0-13,0-13h7.8C220.9,88.4,222.1,89.7,222,91.3z"/>
						</g>
					</g>
				</g>
			</g>
			<g>
				<g>
					<g>
						<g>
							<path class="st20" d="M212.8,102.8h-2.5c-0.1,0-0.2-0.1-0.2-0.2v-2.5c0-0.1,0.1-0.2,0.2-0.2h2.5c0.1,0,0.2,0.1,0.2,0.2v2.5
								C213.1,102.7,213,102.8,212.8,102.8z"/>
						</g>
					</g>
				</g>
			</g>
		</g>
		<g>
			<g>
				<g>
					<g>
						<g>
							<path class="st1" d="M233.3,88.4h6.4l0,17.8h-8.3c-1.4,0-4-2.1-3.7-4.3l1.2-9.5C229.1,90.1,231,88.4,233.3,88.4z"/>
						</g>
					</g>
				</g>
			</g>
			<g>
				<g>
					<g>
						<g>
							<path class="st14" d="M246.2,88.4h-6.4l0,17.8h8.3c1.4,0,4-2.1,3.7-4.3l-1.2-9.5C250.4,90.1,248.5,88.4,246.2,88.4z"/>
						</g>
					</g>
				</g>
			</g>
			<g>
				<g>
					<g>
						<g>
							<path class="st13" d="M229.4,91.3c0.4,3.8,2.2,10.1,10.4,10.1c0-8.7,0-13,0-13H232C230.5,88.4,229.2,89.7,229.4,91.3z"/>
						</g>
					</g>
				</g>
			</g>
			<g>
				<g>
					<g>
						<g>
							<path class="st3" d="M250.2,91.3c-0.4,3.8-2.2,10.1-10.4,10.1c0-8.7,0-13,0-13h7.8C249.1,88.4,250.3,89.7,250.2,91.3z"/>
						</g>
					</g>
				</g>
			</g>
			<g>
				<g>
					<g>
						<g>
							<path class="st20" d="M241,102.8h-2.5c-0.1,0-0.2-0.1-0.2-0.2v-2.5c0-0.1,0.1-0.2,0.2-0.2h2.5c0.1,0,0.2,0.1,0.2,0.2v2.5
								C241.2,102.7,241.1,102.8,241,102.8z"/>
						</g>
					</g>
				</g>
			</g>
		</g>
		<g>
			<g>
				<path class="st2" d="M205.6,81.5l-0.2-0.3c0.1,0,6.4-4.8,20.1-4.8c13.6,0,20.3,4.2,20.4,4.3l-0.2,0.3c-0.1,0-6.7-4.2-20.2-4.2
					c-7.1,0-12.1,1.3-15.1,2.4C207.2,80.3,205.6,81.5,205.6,81.5z"/>
			</g>
		</g>
		<g>
			<g>
				<g>
					<g>
						<path class="st14" d="M206.5,81.6l-0.8-1.2c0,0,0,0,0.1,0c0,0,0.1-0.1,0.1-0.1c0.1-0.1,0.2-0.1,0.2-0.1l0.7,1.3
							c0,0-0.1,0.1-0.2,0.1C206.7,81.5,206.6,81.6,206.5,81.6C206.5,81.6,206.5,81.6,206.5,81.6z"/>
					</g>
				</g>
			</g>
			<g>
				<g>
					<g>
						<path class="st14" d="M207.5,81.1l-0.7-1.3c0,0,0.1-0.1,0.2-0.1c0.1-0.1,0.2-0.1,0.2-0.1l0.6,1.3c0,0-0.1,0.1-0.2,0.1
							C207.6,81,207.5,81.1,207.5,81.1z"/>
					</g>
				</g>
			</g>
			<g>
				<g>
					<g>
						<polygon class="st14" points="208.6,80.5 208,79.2 208.4,79 209,80.3 						"/>
					</g>
				</g>
			</g>
			<g>
				<g>
					<g>
						<polygon class="st14" points="209.6,80.1 209.1,78.7 209.6,78.6 210.1,79.9 						"/>
					</g>
				</g>
			</g>
			<g>
				<g>
					<g>
						<polygon class="st14" points="210.7,79.6 210.3,78.3 210.7,78.1 211.2,79.5 						"/>
					</g>
				</g>
			</g>
			<g>
				<g>
					<g>
						<path class="st14" d="M211.9,79.3l-0.4-1.4c0,0,0.1,0,0.2-0.1c0.1,0,0.2-0.1,0.2-0.1l0.4,1.4c0,0-0.1,0-0.2,0.1
							C212,79.2,211.9,79.3,211.9,79.3z"/>
					</g>
				</g>
			</g>
			<g>
				<g>
					<g>
						<path class="st14" d="M213,78.9l-0.4-1.4c0,0,0.1,0,0.2-0.1c0.1,0,0.2-0.1,0.2-0.1l0.4,1.4c0,0-0.1,0-0.2,0.1
							C213.1,78.9,213,78.9,213,78.9z"/>
					</g>
				</g>
			</g>
			<g>
				<g>
					<g>
						<polygon class="st14" points="214.1,78.6 213.8,77.2 214.3,77.1 214.6,78.5 						"/>
					</g>
				</g>
			</g>
			<g>
				<g>
					<g>
						<polygon class="st14" points="215.3,78.4 215,76.9 215.5,76.9 215.8,78.3 						"/>
					</g>
				</g>
			</g>
			<g>
				<g>
					<g>
						<path class="st14" d="M216.5,78.1l-0.3-1.4c0,0,0.1,0,0.2,0c0.1,0,0.2,0,0.2,0l0.2,1.4c0,0-0.1,0-0.2,0
							C216.6,78.1,216.5,78.1,216.5,78.1z"/>
					</g>
				</g>
			</g>
			<g>
				<g>
					<g>
						<polygon class="st14" points="217.6,77.9 217.4,76.5 217.9,76.4 218.1,77.9 						"/>
					</g>
				</g>
			</g>
			<g>
				<g>
					<g>
						<polygon class="st14" points="218.8,77.8 218.6,76.3 219.1,76.3 219.3,77.7 						"/>
					</g>
				</g>
			</g>
			<g>
				<g>
					<g>
						<polygon class="st14" points="220,77.6 219.8,76.2 220.3,76.1 220.5,77.6 						"/>
					</g>
				</g>
			</g>
			<g>
				<g>
					<g>
						<polygon class="st14" points="221.2,77.5 221.1,76.1 221.5,76 221.6,77.5 						"/>
					</g>
				</g>
			</g>
			<g>
				<g>
					<g>
						<polygon class="st14" points="222.4,77.4 222.3,76 222.8,76 222.8,77.4 						"/>
					</g>
				</g>
			</g>
			<g>
				<g>
					<g>
						<polygon class="st14" points="223.5,77.4 223.5,75.9 224,75.9 224,77.4 						"/>
					</g>
				</g>
			</g>
			<g>
				<g>
					<g>
						<polygon class="st14" points="224.7,77.4 224.7,75.9 225.2,75.9 225.2,77.3 						"/>
					</g>
				</g>
			</g>
			<g>
				<g>
					<g>
						<polygon class="st14" points="225.9,77.3 225.9,75.9 226.4,75.9 226.4,77.4 						"/>
					</g>
				</g>
			</g>
			<g>
				<g>
					<g>
						<polygon class="st14" points="227.1,77.4 227.2,75.9 227.7,75.9 227.6,77.4 						"/>
					</g>
				</g>
			</g>
			<g>
				<g>
					<g>
						<polygon class="st14" points="228.3,77.4 228.4,76 228.9,76 228.8,77.4 						"/>
					</g>
				</g>
			</g>
			<g>
				<g>
					<g>
						<polygon class="st14" points="229.5,77.5 229.6,76 230.1,76.1 230,77.5 						"/>
					</g>
				</g>
			</g>
			<g>
				<g>
					<g>
						<polygon class="st14" points="230.7,77.6 230.8,76.1 231.3,76.2 231.2,77.6 						"/>
					</g>
				</g>
			</g>
			<g>
				<g>
					<g>
						<polygon class="st14" points="231.9,77.7 232,76.2 232.5,76.3 232.4,77.7 						"/>
					</g>
				</g>
			</g>
			<g>
				<g>
					<g>
						<polygon class="st14" points="233.1,77.8 233.3,76.4 233.7,76.4 233.5,77.9 						"/>
					</g>
				</g>
			</g>
			<g>
				<g>
					<g>
						<path class="st14" d="M234.2,78l0.2-1.4c0,0,0.1,0,0.2,0c0.1,0,0.2,0,0.2,0l-0.2,1.4c0,0-0.1,0-0.2,0
							C234.4,78,234.2,78,234.2,78z"/>
					</g>
				</g>
			</g>
			<g>
				<g>
					<g>
						<polygon class="st14" points="235.4,78.2 235.7,76.8 236.2,76.8 235.9,78.3 						"/>
					</g>
				</g>
			</g>
			<g>
				<g>
					<g>
						<polygon class="st14" points="236.6,78.4 236.9,77 237.4,77.1 237,78.5 						"/>
					</g>
				</g>
			</g>
			<g>
				<g>
					<g>
						<path class="st14" d="M237.7,78.6l0.3-1.4c0,0,0.1,0,0.2,0.1c0.1,0,0.2,0.1,0.2,0.1l-0.3,1.4c0,0-0.1,0-0.2-0.1
							C237.9,78.7,237.7,78.6,237.7,78.6z"/>
					</g>
				</g>
			</g>
			<g>
				<g>
					<g>
						<path class="st14" d="M238.9,78.9l0.4-1.4c0,0,0.1,0,0.2,0.1c0.1,0,0.2,0.1,0.2,0.1l-0.4,1.4c0,0-0.1,0-0.2-0.1
							C239,79,238.9,78.9,238.9,78.9z"/>
					</g>
				</g>
			</g>
			<g>
				<g>
					<g>
						<polygon class="st14" points="240,79.3 240.5,77.9 240.9,78 240.5,79.4 						"/>
					</g>
				</g>
			</g>
			<g>
				<g>
					<g>
						<polygon class="st14" points="241.2,79.6 241.6,78.3 242.1,78.4 241.6,79.8 						"/>
					</g>
				</g>
			</g>
			<g>
				<g>
					<g>
						<polygon class="st14" points="242.3,80 242.8,78.7 243.2,78.8 242.7,80.2 						"/>
					</g>
				</g>
			</g>
			<g>
				<g>
					<g>
						<path class="st14" d="M243.4,80.5l0.6-1.3c0,0,0.1,0,0.2,0.1c0.1,0.1,0.2,0.1,0.2,0.1l-0.6,1.3c0,0-0.1,0-0.2-0.1
							C243.5,80.5,243.4,80.5,243.4,80.5z"/>
					</g>
				</g>
			</g>
			<g>
				<g>
					<g>
						<path class="st14" d="M244.4,80.9l0.6-1.3c0,0,0.1,0.1,0.2,0.1c0.1,0,0.1,0.1,0.2,0.1c0,0,0.1,0,0.1,0l-0.7,1.3c0,0,0,0-0.1,0
							c0,0-0.1,0-0.1-0.1C244.5,81,244.4,80.9,244.4,80.9z"/>
					</g>
				</g>
			</g>
		</g>
	</g>
</g>
</svg>
