<?xml version="1.0" encoding="utf-8"?>
<!-- Generator: Adobe Illustrator 24.1.1, SVG Export Plug-In . SVG Version: 6.00 Build 0)  -->
<svg version="1.1" id="Layer_1" xmlns="http://www.w3.org/2000/svg" xmlns:xlink="http://www.w3.org/1999/xlink" x="0px" y="0px"
	 viewBox="0 0 283.8 215" style="enable-background:new 0 0 283.8 215;" xml:space="preserve">
<style type="text/css">
	.st0{fill:#FFFFFF;}
	.st1{fill:#65C4EE;}
	.st2{fill:#2FAAD5;}
	.st3{fill:#EF4223;}
	.st4{fill:#CB3027;}
	.st5{fill:#FFCB05;}
	.st6{fill:#FBAC1B;}
	.st7{fill:#231F20;}
	.st8{fill:#6E6F72;}
	.st9{fill:#424143;}
	.st10{fill:#FCC853;}
	.st11{fill:#4E504F;}
	.st12{fill:#383938;}
</style>
<g>
	<g>
		<polygon class="st0" points="266,143.9 265.1,140.7 262.8,142.9 261.9,139.7 259.5,142 258.6,138.7 256.3,141 255.4,137.7 
			255.1,138 255.2,137.7 252.9,139.9 252,136.7 249.6,139 248.8,135.7 246.4,138 245.5,134.7 243.1,137 242.3,133.8 242,134 
			233.8,161.1 246.9,165.1 260.1,169 268.3,141.7 		"/>
	</g>
	<g>
		<g>
			<path class="st1" d="M270.8,156.5l-16.3,54c-0.6,1.9-2.6,3-4.4,2.4l-40.2-12.2c-1.9-0.6-3-2.6-2.4-4.4l16.3-54
				c0.6-1.9,2.6-3,4.4-2.4l40.2,12.2C270.4,152.7,271.4,154.6,270.8,156.5z"/>
		</g>
		<g>
			<path class="st2" d="M234.9,141.9l-18.4,60.8l-6.6-2c-1.9-0.6-3-2.6-2.4-4.4l16.3-54c0.6-1.9,2.6-3,4.4-2.4L234.9,141.9z"/>
		</g>
		<g>
			<path class="st0" d="M229.9,186.2c-0.1,0.4-0.3,0.6-0.6,0.8c-0.3,0.1-0.7,0.1-1.1,0l-0.3-0.1l-0.4,1.3l-0.8-0.2l1.1-3.6l1.2,0.3
				c0.4,0.1,0.7,0.3,0.9,0.6C230,185.5,230,185.9,229.9,186.2z M228,186.3l0.3,0.1c0.2,0.1,0.4,0.1,0.6,0c0.1-0.1,0.2-0.2,0.3-0.4
				c0.1-0.2,0-0.3,0-0.4c-0.1-0.1-0.2-0.2-0.4-0.3l-0.3-0.1L228,186.3z"/>
			<path class="st0" d="M232,189.6l0-0.9l-1.3-0.4l-0.5,0.8l-0.8-0.2l2.4-3.2l0.9,0.3l0.2,4L232,189.6z M232,188c0-0.8,0-1.3,0-1.4
				c0-0.1,0-0.2,0-0.3c-0.1,0.2-0.4,0.7-0.9,1.4L232,188z"/>
			<path class="st0" d="M235.7,189.6c-0.1,0.3-0.3,0.5-0.6,0.7c-0.3,0.1-0.6,0.1-1.1,0c-0.4-0.1-0.7-0.3-1-0.5l0.2-0.7
				c0.2,0.2,0.4,0.3,0.5,0.4c0.2,0.1,0.3,0.2,0.4,0.2c0.2,0.1,0.3,0.1,0.4,0c0.1,0,0.2-0.1,0.2-0.2c0-0.1,0-0.1,0-0.2
				c0-0.1-0.1-0.1-0.1-0.2c-0.1-0.1-0.2-0.2-0.4-0.4c-0.2-0.2-0.3-0.3-0.4-0.4c-0.1-0.1-0.1-0.3-0.2-0.4c0-0.1,0-0.3,0-0.5
				c0.1-0.3,0.3-0.5,0.6-0.7c0.3-0.1,0.6-0.1,1,0c0.2,0.1,0.4,0.1,0.5,0.2c0.2,0.1,0.3,0.2,0.5,0.3l-0.4,0.5
				c-0.2-0.1-0.3-0.2-0.4-0.3c-0.1-0.1-0.2-0.1-0.4-0.2c-0.1,0-0.3,0-0.4,0c-0.1,0-0.2,0.1-0.2,0.2c0,0.1,0,0.1,0,0.2
				c0,0.1,0.1,0.1,0.1,0.2c0.1,0.1,0.2,0.2,0.4,0.4c0.3,0.3,0.5,0.5,0.5,0.7C235.8,189.2,235.8,189.4,235.7,189.6z"/>
			<path class="st0" d="M238.5,190.5c-0.1,0.3-0.3,0.5-0.6,0.7c-0.3,0.1-0.6,0.1-1.1,0c-0.4-0.1-0.7-0.3-1-0.5l0.2-0.7
				c0.2,0.2,0.4,0.3,0.5,0.4c0.2,0.1,0.3,0.2,0.4,0.2c0.2,0.1,0.3,0.1,0.4,0c0.1,0,0.2-0.1,0.2-0.2c0-0.1,0-0.1,0-0.2
				c0-0.1-0.1-0.1-0.1-0.2c-0.1-0.1-0.2-0.2-0.4-0.4c-0.2-0.2-0.3-0.3-0.4-0.4s-0.1-0.3-0.2-0.4c0-0.1,0-0.3,0-0.5
				c0.1-0.3,0.3-0.5,0.6-0.7c0.3-0.1,0.6-0.1,1,0c0.2,0.1,0.4,0.1,0.5,0.2c0.2,0.1,0.3,0.2,0.5,0.3l-0.4,0.5
				c-0.2-0.1-0.3-0.2-0.4-0.3c-0.1-0.1-0.2-0.1-0.4-0.2c-0.1,0-0.3,0-0.4,0c-0.1,0-0.2,0.1-0.2,0.2c0,0.1,0,0.1,0,0.2
				c0,0.1,0.1,0.1,0.1,0.2c0.1,0.1,0.2,0.2,0.4,0.4c0.3,0.3,0.5,0.5,0.5,0.7C238.6,190,238.6,190.2,238.5,190.5z"/>
			<path class="st0" d="M242.1,189.9c-0.1,0.4-0.3,0.6-0.6,0.8c-0.3,0.1-0.7,0.1-1.1,0l-0.3-0.1l-0.4,1.3l-0.8-0.2l1.1-3.6l1.2,0.3
				c0.4,0.1,0.7,0.3,0.9,0.6C242.2,189.2,242.2,189.6,242.1,189.9z M240.2,190l0.3,0.1c0.2,0.1,0.4,0.1,0.6,0
				c0.1-0.1,0.2-0.2,0.3-0.4c0.1-0.2,0-0.3,0-0.4c-0.1-0.1-0.2-0.2-0.4-0.3l-0.3-0.1L240.2,190z"/>
			<path class="st0" d="M245.8,191.8c-0.2,0.6-0.5,1-0.9,1.2c-0.4,0.2-0.9,0.3-1.4,0.1c-0.6-0.2-0.9-0.5-1.1-0.9
				c-0.2-0.4-0.2-0.9,0-1.5c0.2-0.6,0.5-1,0.9-1.2c0.4-0.2,0.9-0.3,1.4-0.1c0.6,0.2,0.9,0.5,1.1,0.9
				C246,190.7,246,191.2,245.8,191.8z M243.2,191c-0.1,0.4-0.1,0.7,0,1c0.1,0.2,0.3,0.4,0.6,0.5c0.6,0.2,1-0.1,1.3-0.9
				c0.2-0.8,0.1-1.3-0.5-1.5c-0.3-0.1-0.6-0.1-0.8,0.1C243.5,190.3,243.3,190.6,243.2,191z"/>
			<path class="st0" d="M247.2,192.7l-0.4,1.4l-0.8-0.2l1.1-3.6l1,0.3c0.5,0.1,0.8,0.3,1,0.6c0.2,0.2,0.2,0.6,0.1,0.9
				c-0.1,0.2-0.2,0.4-0.3,0.5c-0.2,0.1-0.4,0.2-0.6,0.2c0.3,1,0.5,1.6,0.6,1.9l-0.8-0.3l-0.4-1.6L247.2,192.7z M247.4,192.1l0.2,0.1
				c0.2,0.1,0.4,0.1,0.6,0c0.1,0,0.2-0.2,0.3-0.3c0.1-0.2,0-0.3-0.1-0.4c-0.1-0.1-0.3-0.2-0.5-0.3l-0.2-0.1L247.4,192.1z"/>
			<path class="st0" d="M250.8,195.3L250,195l0.9-3l-1-0.3l0.2-0.6l2.7,0.8l-0.2,0.6l-1-0.3L250.8,195.3z"/>
		</g>
		<g>
			
				<rect x="238" y="182.1" transform="matrix(0.2895 -0.9572 0.9572 0.2895 -17.1295 366.5946)" class="st0" width="0.7" height="25.5"/>
		</g>
		<g>
			
				<rect x="240.9" y="172.6" transform="matrix(0.2895 -0.9572 0.9572 0.2895 -6.0657 362.6177)" class="st0" width="0.7" height="25.5"/>
		</g>
		<g>
			<g>
				<path class="st0" d="M245.9,155.5c1.1,0,2.3,0.2,3.4,0.5c6.3,1.9,9.8,8.5,7.9,14.8c-1.6,5.1-6.3,8.4-11.4,8.4
					c-1.1,0-2.3-0.2-3.4-0.5c-6.3-1.9-9.8-8.5-7.9-14.8C236.1,158.8,240.8,155.5,245.9,155.5L245.9,155.5z M245.9,154.8v0.7V154.8
					L245.9,154.8c-2.6,0-5.3,0.9-7.4,2.4c-2.2,1.6-3.8,3.9-4.6,6.5c-2,6.7,1.8,13.7,8.4,15.7c1.2,0.4,2.4,0.5,3.7,0.5
					c2.6,0,5.3-0.9,7.4-2.4c2.2-1.6,3.8-3.9,4.6-6.5c2-6.7-1.8-13.7-8.4-15.7C248.4,155,247.1,154.8,245.9,154.8L245.9,154.8z"/>
			</g>
			<g>
				
					<rect x="233.3" y="167" transform="matrix(0.2895 -0.9572 0.9572 0.2895 14.4934 354.3009)" class="st0" width="25.2" height="0.7"/>
			</g>
			<g>
				
					<rect x="245.5" y="154.8" transform="matrix(0.2895 -0.9572 0.9572 0.2895 14.4994 354.3085)" class="st0" width="0.7" height="25.2"/>
			</g>
			<g>
				<path class="st0" d="M240.1,178.9c-3.7-8.6-1.5-14.8,1-18.5c2.7-4,6.2-5.9,6.4-6l0.3,0.6c0,0-3.5,1.9-6.2,5.8
					c-3.5,5.1-3.8,11.1-0.9,17.7L240.1,178.9z"/>
			</g>
			<g>
				<path class="st0" d="M244.6,180.2l-0.4-0.6c6.1-3.9,9.1-9.1,9-15.3c0-4.7-1.9-8.2-1.9-8.2l0.6-0.3c0.1,0.1,1.9,3.7,2,8.5
					C254,168.8,252.4,175.2,244.6,180.2z"/>
			</g>
			<g>
				<path class="st0" d="M253.4,162.8c-8.4,0-14.3-5.9-14.3-6l0.5-0.5c0.1,0.1,7.6,7.7,17.7,5.3l0.2,0.7
					C256,162.7,254.7,162.8,253.4,162.8z"/>
			</g>
			<g>
				<path class="st0" d="M252.2,178.6c-0.1-0.1-7.6-7.7-17.7-5.3l-0.2-0.7c10.5-2.4,18.3,5.5,18.4,5.5L252.2,178.6z"/>
			</g>
		</g>
	</g>
</g>
<g>
	<g>
		<path class="st3" d="M61.4,150.2c0-17-13.7-30.7-30.7-30.7S0,133.2,0,150.2c0,0-0.8,30.9,30.7,62.4
			C62.2,181.1,61.4,150.2,61.4,150.2z M30.9,166c-7.4,0-13.3-6-13.3-13.3c0-7.4,6-13.3,13.3-13.3s13.3,6,13.3,13.3
			C44.2,160,38.3,166,30.9,166z"/>
	</g>
	<g>
		<path class="st4" d="M61.4,150.2c0-17-13.7-30.7-30.7-30.7v19.9c0.1,0,0.1,0,0.2,0c7.4,0,13.3,6,13.3,13.3c0,7.4-6,13.3-13.3,13.3
			c-0.1,0-0.1,0-0.2,0v46.5C62.2,181.1,61.4,150.2,61.4,150.2z"/>
	</g>
</g>
<g>
	<g>
		<g>
			<path class="st2" d="M230.7,111.7c0,1,0,2-0.1,3c-0.7,18.1-7.7,34.6-18.8,47.5c-1.4,1.6-2.8,3.1-4.3,4.6
				c-8.4,8.2-18.6,14.4-30,18.1c-3.1,1-6.3,1.8-9.5,2.4c-3.7,0.7-7.4,1.1-11.2,1.3c-1,0-2,0.1-3,0.1s-2,0-3-0.1
				c-3.4-0.1-6.7-0.5-10-1h0c-3.2-0.5-6.3-1.3-9.4-2.2c-11.7-3.5-22.2-9.8-30.8-18c-1.5-1.4-3-2.9-4.4-4.5
				c-11.5-12.9-18.7-29.7-19.4-48.1c0-1-0.1-2-0.1-3s0-2,0.1-3c0.7-18.2,7.7-34.7,18.9-47.5c1.4-1.6,2.8-3.1,4.3-4.5
				c8.3-8.1,18.5-14.4,29.9-18.1c3.1-1,6.4-1.8,9.6-2.5c3.6-0.7,7.4-1.1,11.2-1.3c1,0,2-0.1,3-0.1s2,0,3,0.1
				c4.3,0.2,8.4,0.7,12.5,1.5c3.3,0.7,6.6,1.6,9.8,2.7c11,3.8,20.9,10.1,29,18.2c1.5,1.5,2.9,3,4.3,4.6c10.8,12.7,17.6,29,18.3,46.9
				C230.7,109.7,230.7,110.7,230.7,111.7z"/>
		</g>
		<g>
			<path class="st1" d="M153.8,34.8v153.9c-42.5,0-77-34.5-77-77C76.8,69.2,111.3,34.8,153.8,34.8z"/>
		</g>
		<g>
			<path class="st0" d="M156.8,34.8v153.8c-1,0-2,0.1-3,0.1s-2,0-3-0.1V34.8c1,0,2-0.1,3-0.1S155.8,34.8,156.8,34.8z"/>
		</g>
		<g>
			<path class="st0" d="M230.7,111.7c0,1,0,2-0.1,3H76.9c0-1-0.1-2-0.1-3s0-2,0.1-3h153.8C230.7,109.7,230.7,110.7,230.7,111.7z"/>
		</g>
		<g>
			<path class="st0" d="M140.7,187.6c-3.2-0.5-6.3-1.3-9.4-2.2c-6.1-8.3-11.2-16.7-15.2-25.3c-0.9-1.8-1.7-3.7-2.5-5.6
				c-3.3-7.9-5.6-15.9-7.1-24c-0.9-5.3-1.5-10.5-1.7-15.8c-0.1-2-0.1-4,0-6.1c0.3-10.4,2-20.9,5.3-31.3c0.9-2.7,1.8-5.4,2.8-7.9
				c0.7-1.9,1.5-3.8,2.3-5.6c4.7-10.6,10.2-19.2,14.6-25.3c3.1-1,6.4-1.8,9.6-2.5c-4.4,5.3-12.2,15.8-18.6,29.9
				c-0.8,1.8-1.6,3.7-2.3,5.6c-1,2.5-1.9,5.1-2.8,7.9c-3,9.7-4.7,19.5-4.9,29.3c-0.1,2,0,4,0,6.1c0.2,5,0.7,10,1.6,14.9
				c1.4,7.7,3.7,15.3,6.8,22.8c0.8,1.9,1.6,3.7,2.5,5.6C126.6,168.1,132.9,177.9,140.7,187.6z"/>
		</g>
		<g>
			<path class="st0" d="M203.7,114.7c-0.2,5.3-0.7,10.6-1.7,15.8c-1.4,8-3.8,16-7,23.9c-0.8,1.9-1.6,3.7-2.4,5.6
				c-4,8.4-8.9,16.8-15,24.9c-3.1,1-6.3,1.8-9.5,2.4c7.7-9.6,14-19.4,18.7-29.4c0.9-1.9,1.7-3.7,2.5-5.6c3.2-7.6,5.4-15.2,6.8-22.9
				c0.9-4.9,1.4-9.8,1.6-14.8c0.1-2,0.1-4,0-6.1c-0.2-9.8-1.9-19.7-5-29.5c-0.8-2.6-1.7-5.1-2.7-7.6c-0.8-1.9-1.5-3.8-2.3-5.6
				c-6.2-13.9-13.9-24.3-18.4-29.7c3.3,0.7,6.6,1.6,9.8,2.7c4.4,6.1,9.8,14.6,14.3,25c0.8,1.8,1.6,3.7,2.3,5.6
				c1,2.5,1.9,5.1,2.7,7.8c3.3,10.4,5,20.9,5.3,31.3C203.7,110.7,203.7,112.7,203.7,114.7z"/>
		</g>
		<g>
			<path class="st0" d="M212.3,61.8c-4.9,2.7-10.5,5.4-16.6,7.8c-1.9,0.7-3.8,1.4-5.7,2c-0.6,0.2-1.2,0.4-1.8,0.6
				c-10.4,3.3-20.9,5-31.4,5.3c-0.9,0-1.7,0-2.6,0c-1.2,0-2.3,0-3.5-0.1c-5.3-0.2-10.5-0.7-15.8-1.7c-5.5-1-10.9-2.4-16.3-4.2
				c-1.9-0.6-3.8-1.3-5.7-2.1c-5.8-2.3-11.5-5-17.2-8.3c1.4-1.6,2.8-3.1,4.3-4.5c5,2.8,10.1,5.2,15.2,7.2c1.9,0.8,3.8,1.4,5.7,2.1
				c5,1.7,10,3,15.1,3.9c4.9,0.9,9.8,1.4,14.7,1.6c2,0.1,4,0.1,6.1,0c9.9-0.2,19.7-1.9,29.6-5c0.4-0.1,0.9-0.3,1.3-0.4
				c2-0.6,3.9-1.3,5.7-2c5.4-2.1,10.3-4.4,14.7-6.8C209.6,58.7,211,60.2,212.3,61.8z"/>
		</g>
		<g>
			<path class="st0" d="M211.8,162.2c-1.4,1.6-2.8,3.1-4.3,4.6c-4.5-2.4-9.5-4.7-15-6.8c-1.9-0.7-3.8-1.4-5.8-2
				c-0.2-0.1-0.4-0.1-0.6-0.2c-9.7-3-19.6-4.7-29.3-4.9c-2-0.1-4,0-6.1,0c-5,0.2-9.9,0.7-14.8,1.6c-4.7,0.8-9.4,2-14,3.5
				c-1.9,0.6-3.8,1.3-5.7,2c-5.2,2-10.4,4.4-15.5,7.3c-1.5-1.4-3-2.9-4.4-4.5c5.8-3.3,11.6-6,17.4-8.3c1.9-0.7,3.8-1.4,5.7-2
				c5.2-1.7,10.4-3,15.6-4c5.2-0.9,10.5-1.5,15.8-1.7c2-0.1,4-0.1,6.1,0c10.5,0.2,20.9,2,31.4,5.3c0.4,0.1,0.7,0.2,1.1,0.3
				c2,0.6,3.9,1.3,5.7,2C201.2,156.8,206.8,159.5,211.8,162.2z"/>
		</g>
	</g>
	<g>
		<path class="st3" d="M48.1,141.9c-1.2,0-2.2,0-3.2-0.1c-1.6-0.1-5.9-0.5-5.9-3.3c-0.1-6.2,6-12.4,17.9-18.6
			c8.7-4.5,17.5-7.3,17.6-7.3l0.7,2.3c-0.1,0-8.7,2.8-17.2,7.2c-10.9,5.6-16.6,11.3-16.6,16.4c0.2,0.3,2.4,2.1,20.2,0.1
			c11.7-1.3,28.2-4,47.5-7.8c36-7.1,79.1-17.4,112.5-26.8c55.8-15.9,59.5-22.1,59.7-23.2c0.2-1.4-0.1-2.5-1.1-3.5
			c-2.5-2.6-10.1-5.4-32.3-4.4c-13.5,0.6-26,2.4-26.1,2.4l-0.3-2.4c0.1,0,12.7-1.8,26.3-2.4c18.5-0.8,30,0.9,34.1,5.2
			c1.5,1.6,2.1,3.4,1.8,5.6c-0.5,2.9-5.7,5.7-10.2,7.8c-5.6,2.6-13.7,5.7-24,9.1c-18.7,6.2-44.9,13.4-73.7,20.5
			c-27.9,6.8-56.1,12.9-79.6,17.2C80.1,138.6,59.4,141.9,48.1,141.9z"/>
	</g>
	<g>
		<g>
			<polygon class="st5" points="134.3,6.4 194.8,6.4 179,22.9 134.3,22.9 			"/>
		</g>
		<g>
			<polygon class="st6" points="134.3,39.4 194.8,39.4 179,22.9 134.3,22.9 			"/>
		</g>
		<g>
			<path class="st7" d="M135.3,74.2c-1.1,0-2-0.9-2-1.9l-1-69.2c0-1.1,0.9-2,1.9-2c1.1,0,2,0.9,2,1.9l1,69.2
				C137.3,73.2,136.4,74.1,135.3,74.2C135.3,74.2,135.3,74.2,135.3,74.2z"/>
		</g>
	</g>
	<g>
		<g>
			<path class="st3" d="M190.5,110.1l-2-9.7c-0.3-1.7,0.7-3.3,2.4-3.7l0,0c1.3-0.3,2.7,0.3,3.3,1.5l2.3,4.8c0.7,1.4,2.3,2,3.7,1.5
				l53.1-21.6c5.6-1.9,11.7-1.3,16.8,1.6l0.2,0.1c4,2.3,5.1,7.6,2.3,11.2l0,0c-3.9,5.1-9.7,8.3-16,8.8L199,115.8
				C195.1,116.5,191.3,114,190.5,110.1z"/>
		</g>
		<g>
			<path class="st4" d="M191.7,112.9c1.6,2.2,4.4,3.4,7.2,2.9l57.8-11.1c6.3-0.5,12.1-3.7,16-8.8l0,0c1.8-2.4,2-5.5,0.8-8L223.9,103
				L191.7,112.9z"/>
		</g>
		<g>
			<path class="st5" d="M248.1,96.1L201,81.2c-2.9-0.9-5.9,0.9-6.5,3.8l0,0l29.4,18L248.1,96.1z"/>
		</g>
		<g>
			<path class="st5" d="M270.5,84.6l-0.2-0.1c-3.7-2.1-7.9-3-12.1-2.6l0,0.1l3.7,9l11.5-3.1C272.8,86.5,271.8,85.4,270.5,84.6z"/>
		</g>
	</g>
	<g>
		<path class="st3" d="M223.2,205.5c-2.2,0-6.5-1.9-16.4-10.6c-8-7-18.4-17.3-30.8-30.4c-25-26.5-54.9-61.2-78-90.5
			c-12-15.3-21.8-28.6-28.1-38.4c-5.1-7.9-10.8-17.5-8.9-21.2c1-1.9,2.5-3.1,4.7-3.5c5.8-1,16.2,4.4,30.6,15.9
			c10.6,8.5,19.8,17.3,19.8,17.4l-1.7,1.7c-0.1-0.1-9.1-8.9-19.7-17.3C77.4,14.8,69.6,12.6,66,13.2c-1.4,0.2-2.3,0.9-2.9,2.2
			c-0.5,1.1-1.2,8.7,36.8,57.1c23.1,29.3,52.9,64,77.9,90.4c39.1,41.4,45.2,40.5,45.7,40.2c1.3-0.6,2.1-1.5,2.5-2.9
			c2.2-8.2-11.1-28.5-16.4-35.7l1.9-1.4c0,0.1,5,6.7,9.5,14.5c6.2,10.7,8.6,18.5,7.4,23.3c-0.6,2.1-1.9,3.6-3.8,4.5
			C224.1,205.4,223.7,205.5,223.2,205.5z"/>
	</g>
	<g>
		<g>
			<path class="st7" d="M175.6,206.2c0,4.9-3.9,8.8-8.8,8.8c-4.9,0-8.8-3.9-8.8-8.8c0-4.9,3.9-8.8,8.8-8.8
				C171.7,197.4,175.6,201.3,175.6,206.2z"/>
		</g>
		<g>
			<circle class="st8" cx="166.8" cy="206.2" r="3.6"/>
		</g>
		<g>
			<path class="st3" d="M179.9,194.6v5.4c0,2.3-1.9,4.2-4.2,4.2h-30v-29.5H164l8.7,14.1l0.9,0.4l3.7,1.6c0.8,0.3,1.4,0.9,1.9,1.6
				C179.6,193,179.9,193.8,179.9,194.6z"/>
		</g>
		<g>
			<circle class="st7" cx="117.4" cy="206.2" r="8.8"/>
		</g>
		<g>
			<circle class="st8" cx="117.4" cy="206.2" r="3.6"/>
		</g>
		<g>
			<path class="st5" d="M174.5,166.6v3.9c0,2.3-1.9,4.2-4.2,4.2h-20c-1.3,0-2.3,1-2.3,2.3v24.9c0,1.3-1,2.3-2.3,2.3h-37.3
				c-2.3,0-4.2-1.9-4.2-4.2v-33.3c0-0.1,0-0.1,0-0.2c0.1-2.3,1.9-4.1,4.2-4.1h61.8c2.3,0,4.1,1.8,4.2,4.1
				C174.5,166.5,174.5,166.5,174.5,166.6z"/>
		</g>
		<g>
			<path class="st1" d="M173.6,189.2h-14.9c-0.9,0-1.7-0.4-2.3-1c-0.3-0.3-0.6-0.7-0.7-1.1c-0.1-0.3-0.2-0.7-0.2-1v-11.3h8.4
				l0.1,0.2l4.4,7.1l4.2,6.8L173.6,189.2z"/>
		</g>
		<g>
			<path class="st9" d="M177.9,202.2h-71.7c-1.1,0-1.9,0.9-1.9,1.9l0,0c0,1.1,0.9,1.9,1.9,1.9h71.7c1.1,0,1.9-0.9,1.9-1.9l0,0
				C179.9,203.1,179,202.2,177.9,202.2z"/>
		</g>
		<g>
			<path class="st1" d="M142,178.3v7.5c0,2-1.6,3.6-3.6,3.6h-26.2c-2,0-3.6-1.6-3.6-3.6v-7.5c0-2,1.6-3.6,3.6-3.6h26.2
				C140.4,174.7,142,176.3,142,178.3z"/>
		</g>
		<g>
			<path class="st10" d="M179.9,194.6v0.8h-2c-0.4,0-0.8-0.2-1.1-0.4c-0.3-0.3-0.4-0.6-0.4-1.1c0-0.8,0.7-1.5,1.5-1.5h1.3
				C179.6,193,179.9,193.8,179.9,194.6z"/>
		</g>
		<g>
			<path class="st6" d="M174.5,166.4h-70.3c0.1-2.3,1.9-4.1,4.2-4.1h61.8C172.6,162.3,174.4,164.2,174.5,166.4z"/>
		</g>
	</g>
	<g>
		<g>
			<path class="st11" d="M96.6,81h16.8v-5.3c0-4.6-3.8-8.4-8.4-8.4l0,0c-4.6,0-8.4,3.8-8.4,8.4V81z"/>
		</g>
		<g>
			<path class="st12" d="M113.4,75.8V81H96.6v-5.3c0-1.2,0.3-2.4,0.7-3.4h15.3C113.1,73.4,113.4,74.6,113.4,75.8z"/>
		</g>
		<g>
			<polygon class="st3" points="45.9,93 118.3,93 118.3,81 60.9,81 			"/>
		</g>
		<g>
			<polygon class="st5" points="47.2,109.4 22,93 124.4,93 116,109.4 			"/>
		</g>
		<g>
			<polygon class="st4" points="120.9,99.8 116,109.4 47.2,109.4 32.5,99.8 			"/>
		</g>
		<g>
			<path class="st0" d="M69,87c0,1.1-0.9,2.1-2.1,2.1c-1.1,0-2.1-0.9-2.1-2.1c0-1.1,0.9-2.1,2.1-2.1C68.1,85,69,85.9,69,87z"/>
		</g>
		<g>
			<path class="st0" d="M78.8,87c0,1.1-0.9,2.1-2.1,2.1c-1.1,0-2.1-0.9-2.1-2.1c0-1.1,0.9-2.1,2.1-2.1C77.9,85,78.8,85.9,78.8,87z"
				/>
		</g>
		<g>
			<path class="st0" d="M88.5,87c0,1.1-0.9,2.1-2.1,2.1c-1.1,0-2.1-0.9-2.1-2.1c0-1.1,0.9-2.1,2.1-2.1C87.6,85,88.5,85.9,88.5,87z"
				/>
		</g>
		<g>
			<path class="st0" d="M98.3,87c0,1.1-0.9,2.1-2.1,2.1c-1.1,0-2.1-0.9-2.1-2.1c0-1.1,0.9-2.1,2.1-2.1C97.4,85,98.3,85.9,98.3,87z"
				/>
		</g>
		<g>
			<path class="st0" d="M108.1,87c0,1.1-0.9,2.1-2.1,2.1c-1.1,0-2.1-0.9-2.1-2.1c0-1.1,0.9-2.1,2.1-2.1
				C107.2,85,108.1,85.9,108.1,87z"/>
		</g>
	</g>
</g>
</svg>
