<?xml version="1.0" encoding="utf-8"?>
<!-- Generator: Adobe Illustrator 24.1.1, SVG Export Plug-In . SVG Version: 6.00 Build 0)  -->
<svg version="1.1" id="Layer_1" xmlns="http://www.w3.org/2000/svg" xmlns:xlink="http://www.w3.org/1999/xlink" x="0px" y="0px"
	 viewBox="0 0 380 215" style="enable-background:new 0 0 380 215;" xml:space="preserve">
<style type="text/css">
	.st0{fill:#54C3BB;}
	.st1{fill:#FFCB05;}
	.st2{fill:#4E504F;}
	.st3{fill:#383938;}
	.st4{fill:#EF4223;}
	.st5{fill:#CB3027;}
	.st6{fill:#FFFFFF;}
	.st7{fill:#65C4EE;}
	.st8{fill:#2FAAD5;}
	.st9{fill:#171717;}
	.st10{fill:#434343;}
	.st11{fill:#FCD20A;}
	.st12{fill:#36BCAB;}
	.st13{fill:#FBAC1B;}
</style>
<g>
	<path class="st0" d="M374.2,183.7c-13.5,7.1-44.9,10.4-77.8,15.3c-33.7,4.5-69,10.5-106.3,14.4c-37.3,3.8-72.6,2.9-106.3-3.9
		c-33-6.4-64.3-18.6-77.8-28.7c-13.5-10.7-3.6-15.2,30-19.3c33-3.9,89.8-7.4,154.1-10.3c64.4-2.9,121.1,0.5,154.1,7.9
		C377.8,166.1,387.7,177.2,374.2,183.7z"/>
</g>
<g>
	<path class="st1" d="M24.8,174c-4.8,0-7.6-5.5-4.7-9.4c18.5-24.7,68.2-89.5,78.1-89.5c12.3,0,83.7,89.6,96,92.8s96.6-66.8,105.5-66
		c7.1,0.7,45.2,45.5,60.9,64.1c2.7,3.2,0.4,8-3.7,8H24.8z"/>
</g>
<g>
	<path class="st2" d="M203.1,28l16,142.5h34.6V16.9C253.7,16.9,220,18.1,203.1,28z"/>
</g>
<g>
	<path class="st3" d="M304.4,28l-16,142.5h-34.6V16.9C253.7,16.9,287.5,18.1,304.4,28z"/>
</g>
<g>
	<path class="st4" d="M298.5,10.5c-1.5,8.3-2.9,16.6-4.4,24.9c-13.1-2.3-26.3-3.4-39.5-3.4s-26.4,1.1-39.5,3.4
		c-1.5-8.3-2.9-16.6-4.4-24.9C225.3,8,240,6.7,254.7,6.7C269.4,6.7,284,8,298.5,10.5z"/>
</g>
<g>
	<path class="st5" d="M298.5,10.5c-1.5,8.3-2.9,16.6-4.4,24.9c-13.1-2.3-26.3-3.4-39.5-3.4V6.7C269.4,6.7,284,8,298.5,10.5z"/>
</g>
<g>
	<path class="st6" d="M236.9,27.2l-2.5,0.3l-0.6-5.1l-4.7,0.6l0.6,5.1l-2.5,0.3l-1.5-11.8l2.5-0.3l0.6,4.6l4.7-0.6l-0.6-4.6l2.5-0.3
		L236.9,27.2z"/>
	<path class="st6" d="M251,20.2c0.1,2-0.3,3.5-1.2,4.6c-0.9,1.1-2.3,1.7-4.1,1.8c-1.8,0.1-3.2-0.3-4.3-1.3c-1-1-1.6-2.5-1.7-4.4
		c-0.1-2,0.3-3.5,1.2-4.6c0.9-1.1,2.3-1.7,4.1-1.8c1.8-0.1,3.2,0.3,4.3,1.3C250.3,16.8,250.9,18.2,251,20.2z M242.4,20.8
		c0.1,1.3,0.4,2.3,0.9,2.9c0.5,0.6,1.3,0.9,2.3,0.9c2-0.1,2.9-1.5,2.7-4.2c-0.2-2.7-1.2-3.9-3.2-3.8c-1,0.1-1.7,0.4-2.2,1.2
		C242.5,18.4,242.3,19.4,242.4,20.8z"/>
	<path class="st6" d="M259.2,26.1l-2.5,0l0-9.8l-3.2,0l0-2.1l8.9,0l0,2.1l-3.2,0L259.2,26.1z"/>
	<path class="st6" d="M271.9,26.6l-6.8-0.4l0.7-11.8l6.8,0.4l-0.1,2.1l-4.3-0.3l-0.2,2.6l4,0.3l-0.1,2.1l-4-0.3l-0.2,3l4.3,0.3
		L271.9,26.6z"/>
	<path class="st6" d="M275.1,26.9l1.7-11.7l2.5,0.4l-1.4,9.7l4.8,0.7l-0.3,2.1L275.1,26.9z"/>
</g>
<g>
	<polygon class="st7" points="253.7,72.7 219.1,72.7 216.3,50.3 253.7,50.3 	"/>
</g>
<g>
	<polygon class="st8" points="288.3,72.7 253.7,72.7 253.7,50.3 291.1,50.3 	"/>
</g>
<g>
	<polygon class="st7" points="253.7,104.9 221.1,104.9 218.3,82.5 253.7,82.5 	"/>
</g>
<g>
	<polygon class="st8" points="286.3,104.9 253.7,104.9 253.7,82.5 289.2,82.5 	"/>
</g>
<g>
	<polygon class="st7" points="253.7,137.8 223.9,137.8 221.1,115.5 253.7,115.5 	"/>
</g>
<g>
	<polygon class="st8" points="283.5,137.8 253.7,137.8 253.7,115.5 286.3,115.5 	"/>
</g>
<g>
	<g>
		<path class="st4" d="M363.6,182.9V199H249.2v-6.8c0-0.9,0.1-1.8,0.3-2.7c0.6-3,2.2-5.8,4.6-7.8c1.1-0.9,2.3-1.7,3.7-2.2l16.2-10
			l16.5-12c3.3-3.6,7.9-5.7,12.8-5.7h35.4c5.2,0,10.1,2.3,13.4,6.4l6.5,12l4,7.4C363.3,179.3,363.6,181.1,363.6,182.9z"/>
	</g>
	<g>
		<path class="st5" d="M256,195.5c0-0.4,0.1-0.8,0.1-1.2c0.3-1.5,1.1-2.9,2.3-3.8c0.5-0.5,1.1-0.8,1.8-1.1l14.6-9.4
			c2.1-0.8,4.3-1.3,6.5-1.3h70.3c1.3,0,2.6,0.8,3.1,2l1.3,2.9c0.4,0.9,0.5,1.8,0.5,2.8v9.1H256z"/>
	</g>
	<g>
		<path class="st4" d="M364.8,200.3H249.4c-1.4,0-2.5-1.1-2.5-2.5l0,0c0-1.4,1.1-2.5,2.5-2.5h115.4c1.4,0,2.5,1.1,2.5,2.5l0,0
			C367.3,199.2,366.2,200.3,364.8,200.3z"/>
	</g>
	<g>
		<path class="st7" d="M296.6,159.9c1.2-1.3,2.9-2.1,4.7-2.1h12.5h1.9H339c2.5,0,4.8,1.4,5.8,3.7l5.3,8.7h-34.4h-1.9h-32
			L296.6,159.9z"/>
	</g>
	<g>
		<path class="st5" d="M246.9,197.8c0,1.4,1.1,2.5,2.5,2.5h115.4c1.4,0,2.5-1.1,2.5-2.5l0,0H246.9L246.9,197.8z"/>
	</g>
	<g>
		<circle class="st9" cx="274.3" cy="201.1" r="12.4"/>
	</g>
	<g>
		<path class="st10" d="M281.4,201.1c0,3.9-3.2,7.1-7.1,7.1c-3.9,0-7.1-3.2-7.1-7.1c0-3.9,3.2-7.1,7.1-7.1
			C278.2,194,281.4,197.1,281.4,201.1z"/>
	</g>
	<g>
		<circle class="st9" cx="344.2" cy="201.1" r="12.4"/>
	</g>
	<g>
		<path class="st10" d="M351.3,201.1c0,3.9-3.2,7.1-7.1,7.1c-3.9,0-7.1-3.2-7.1-7.1c0-3.9,3.2-7.1,7.1-7.1
			C348.1,194,351.3,197.1,351.3,201.1z"/>
	</g>
	<g>
		<path class="st11" d="M255.7,185.2c0,2.5-2,4.6-4.6,4.6c-0.6,0-1.1-0.1-1.6-0.3c0.6-3,2.2-5.8,4.6-7.8
			C255.1,182.6,255.7,183.8,255.7,185.2z"/>
	</g>
</g>
<g>
	<g>
		<path class="st2" d="M65.7,188.4c0,0,2.7,1.6,6.5,1.9c2.5,0.2,5.4-0.1,8.4-1.9c-5.3-20.5,12.9-53.2,12.9-53.2s0,0-2.8-1.3
			c-0.7-0.3-1.5-0.7-2.5-1.2C60.2,161.7,65.7,188.4,65.7,188.4z"/>
	</g>
	<g>
		<path class="st3" d="M72.1,190.3c2.5,0.2,5.4-0.1,8.4-1.9c-5.3-20.5,12.9-53.2,12.9-53.2s0,0-2.8-1.3
			C74.6,151,72.2,188.7,72.1,190.3z"/>
	</g>
	<g>
		<path class="st0" d="M89.8,134.4c0,0,25.8-16.9,37.6,11.5c11.8,28.4-4.1,6.5-4.1,6.5s-2.9,10-4.9,6c-1.9-4.1-3.2-6.6-3.2-6.6
			s-1.6,7.1-2.8,4.5c-1.2-2.6-3.1-8.3-3.1-8.3s-1.3,5-2.2,4C106.2,151,103.4,136.4,89.8,134.4z"/>
	</g>
	<g>
		<path class="st12" d="M90.2,134.6c0,0-12.2-28.4-37.7-11.2c-25.5,17.2-0.2,7.7-0.2,7.7s-3.1,10,0.8,7.7c3.9-2.3,6.3-3.8,6.3-3.8
			s-2.6,6.8-0.1,5.3c2.5-1.5,7.2-5.2,7.2-5.2s-1.7,4.8-0.4,4.6C67.3,139.4,77.8,128.7,90.2,134.6z"/>
	</g>
	<g>
		<path class="st0" d="M90.2,135c0,0,11.5-28.7-18.7-34.6c-30.2-5.9-5.6,5.4-5.6,5.4s-9.2,4.9-4.9,6c4.4,1.1,7.1,1.8,7.1,1.8
			s-6.7,3-3.9,3.7c2.8,0.7,8.8,1.4,8.8,1.4s-4.6,2.2-3.5,2.9C70.7,122.2,85.6,122.1,90.2,135z"/>
	</g>
	<g>
		<path class="st0" d="M90.4,134c0,0,0.5-30.9,30.6-24.7c30.1,6.2,3.1,7.1,3.1,7.1s6.6,8,2.2,7.4c-4.5-0.7-7.3-1.1-7.3-1.1
			s5,5.3,2.2,4.9c-2.8-0.4-8.6-2.1-8.6-2.1s3.4,3.8,2.1,4C113.4,129.7,99.6,123.9,90.4,134z"/>
	</g>
	<g>
		<path class="st12" d="M90.1,134.7c0,0,6.9-9.3,8.4-16.5C100,111,97,100.3,93,93.9c-4-6.4-2.6,5.6-2.6,5.6s-4.3-1.9-4.3-0.5
			c0,1.4,3.3,5.5,3.3,5.5s-5.2-0.8-3.9,0.5C86.9,106.3,93.3,124.9,90.1,134.7z"/>
	</g>
</g>
<g>
	<g>
		<path class="st6" d="M308.2,187.3H305c-0.1,0-0.1-0.1-0.1-0.1V184c0-0.1,0.1-0.1,0.1-0.1h3.2c0.1,0,0.1,0.1,0.1,0.1v3.2
			C308.4,187.3,308.3,187.3,308.2,187.3z"/>
	</g>
	<g>
		<path class="st6" d="M313.6,187.3h-3.2c-0.1,0-0.1-0.1-0.1-0.1V184c0-0.1,0.1-0.1,0.1-0.1h3.2c0.1,0,0.1,0.1,0.1,0.1v3.2
			C313.7,187.3,313.7,187.3,313.6,187.3z"/>
	</g>
	<g>
		<path class="st6" d="M319,187.3h-3.2c-0.1,0-0.1-0.1-0.1-0.1V184c0-0.1,0.1-0.1,0.1-0.1h3.2c0.1,0,0.1,0.1,0.1,0.1v3.2
			C319.1,187.3,319.1,187.3,319,187.3z"/>
	</g>
	<g>
		<path class="st6" d="M310.9,192.1h-3.2c-0.1,0-0.1-0.1-0.1-0.1v-3.2c0-0.1,0.1-0.1,0.1-0.1h3.2c0.1,0,0.1,0.1,0.1,0.1v3.2
			C311.1,192,311,192.1,310.9,192.1z"/>
	</g>
	<g>
		<path class="st6" d="M316.3,192.1h-3.2c-0.1,0-0.1-0.1-0.1-0.1v-3.2c0-0.1,0.1-0.1,0.1-0.1h3.2c0.1,0,0.1,0.1,0.1,0.1v3.2
			C316.4,192,316.4,192.1,316.3,192.1z"/>
	</g>
</g>
<g>
	<path class="st6" d="M305.4,181.4H304v-5.2h-1.7v-1.1h4.7v1.1h-1.7V181.4z"/>
	<path class="st6" d="M311.5,181.4l-0.3-0.7h0c-0.2,0.3-0.4,0.5-0.7,0.6c-0.2,0.1-0.5,0.2-0.9,0.2c-0.5,0-0.8-0.1-1.1-0.4
		c-0.3-0.3-0.4-0.6-0.4-1.1c0-0.5,0.2-0.9,0.5-1.1c0.4-0.2,0.9-0.4,1.6-0.4l0.8,0v-0.2c0-0.5-0.2-0.7-0.7-0.7
		c-0.4,0-0.8,0.1-1.3,0.3l-0.4-0.9c0.6-0.3,1.2-0.4,1.8-0.4c0.6,0,1.1,0.1,1.5,0.4c0.3,0.3,0.5,0.7,0.5,1.3v3.2H311.5z M311.1,179.1
		l-0.5,0c-0.4,0-0.7,0.1-0.8,0.2c-0.2,0.1-0.3,0.3-0.3,0.6c0,0.4,0.2,0.6,0.6,0.6c0.3,0,0.5-0.1,0.7-0.3c0.2-0.2,0.3-0.4,0.3-0.7
		V179.1z"/>
	<path class="st6" d="M315.3,178.9l-1.5-2.3h1.5l0.9,1.5l0.9-1.5h1.5l-1.6,2.3l1.6,2.4h-1.5l-1-1.6l-1,1.6h-1.5L315.3,178.9z"/>
	<path class="st6" d="M319.8,175.3c0-0.4,0.2-0.6,0.7-0.6c0.5,0,0.7,0.2,0.7,0.6c0,0.2-0.1,0.4-0.2,0.5c-0.1,0.1-0.3,0.2-0.5,0.2
		C320.1,176,319.8,175.8,319.8,175.3z M321.2,181.4h-1.3v-4.8h1.3V181.4z"/>
</g>
<g>
	<g>
		<g>
			<path class="st1" d="M172.9,134.3H53V14.6c0-2.2,1.8-3.9,3.9-3.9h112c2.2,0,3.9,1.8,3.9,3.9V134.3z"/>
		</g>
		<g>
			<rect x="53" y="72.4" class="st13" width="38.8" height="31.5"/>
		</g>
		<g>
			<rect x="92.1" y="40.9" class="st13" width="41.6" height="31.5"/>
		</g>
		<g>
			<rect x="92.1" y="103.9" class="st13" width="41.6" height="30.4"/>
		</g>
		<g>
			<rect x="133.4" y="72.4" class="st13" width="39.5" height="31.5"/>
		</g>
		<g>
			<path class="st4" d="M159.7,10.7H66.2c-7.3,0-13.1,5.9-13.1,13.1v16.6h119.8V23.8C172.9,16.5,167,10.7,159.7,10.7z"/>
		</g>
		<g>
			<path class="st5" d="M159.7,10.7H113v29.8h59.9V23.8C172.9,16.5,167,10.7,159.7,10.7z"/>
		</g>
		<g>
			<path class="st3" d="M70.9,22.1c-1.2,0-2.3-1-2.3-2.3V2.3c0-1.2,1-2.3,2.3-2.3s2.3,1,2.3,2.3v17.6C73.1,21.1,72.1,22.1,70.9,22.1
				z"/>
		</g>
		<g>
			<path class="st3" d="M84.6,22.1c-1.2,0-2.3-1-2.3-2.3V2.3c0-1.2,1-2.3,2.3-2.3s2.3,1,2.3,2.3v17.6C86.8,21.1,85.8,22.1,84.6,22.1
				z"/>
		</g>
		<g>
			<path class="st3" d="M98.3,22.1c-1.2,0-2.3-1-2.3-2.3V2.3C96,1,97.1,0,98.3,0c1.2,0,2.3,1,2.3,2.3v17.6
				C100.6,21.1,99.6,22.1,98.3,22.1z"/>
		</g>
		<g>
			<path class="st3" d="M112,22.1c-1.2,0-2.3-1-2.3-2.3V2.3c0-1.2,1-2.3,2.3-2.3s2.3,1,2.3,2.3v17.6C114.3,21.1,113.3,22.1,112,22.1
				z"/>
		</g>
		<g>
			<path class="st3" d="M125.7,22.1c-1.2,0-2.3-1-2.3-2.3V2.3c0-1.2,1-2.3,2.3-2.3s2.3,1,2.3,2.3v17.6C128,21.1,127,22.1,125.7,22.1
				z"/>
		</g>
		<g>
			<path class="st3" d="M139.5,22.1c-1.2,0-2.3-1-2.3-2.3V2.3c0-1.2,1-2.3,2.3-2.3s2.3,1,2.3,2.3v17.6
				C141.7,21.1,140.7,22.1,139.5,22.1z"/>
		</g>
		<g>
			<path class="st3" d="M153.2,22.1c-1.2,0-2.3-1-2.3-2.3V2.3c0-1.2,1-2.3,2.3-2.3c1.2,0,2.3,1,2.3,2.3v17.6
				C155.4,21.1,154.4,22.1,153.2,22.1z"/>
		</g>
	</g>
	<g>
		<g>
			<polygon class="st8" points="116.9,114.4 119.4,108.7 113.4,109.2 115.9,103.5 109.8,104 112.3,98.3 106.3,98.8 108.8,93.1 
				108.2,93.2 108.6,92.9 102.6,93.4 105.1,87.7 99,88.3 101.5,82.6 95.5,83.1 98,77.4 91.9,77.9 94.4,72.2 93.8,72.3 61.2,94.6 
				75.6,115.6 89.9,136.5 122.9,113.9 			"/>
		</g>
		<g>
			
				<rect x="20.1" y="99.7" transform="matrix(0.5656 0.8247 -0.8247 0.5656 132.0678 21.6668)" class="st3" width="50.8" height="73"/>
		</g>
		<g>
			<path class="st3" d="M74.3,101.2c-0.2,0-0.5-0.1-0.6-0.3c-0.2-0.3-0.1-0.8,0.2-1l8.7-6c0.3-0.2,0.8-0.1,1,0.2
				c0.2,0.3,0.1,0.8-0.2,1l-8.7,6C74.6,101.1,74.4,101.2,74.3,101.2z"/>
		</g>
		<g>
			<path class="st3" d="M77.4,105.7c-0.2,0-0.5-0.1-0.6-0.3c-0.2-0.3-0.1-0.8,0.2-1l15.4-10.6c0.3-0.2,0.8-0.1,1,0.2
				c0.2,0.3,0.1,0.8-0.2,1l-15.4,10.6C77.7,105.7,77.5,105.7,77.4,105.7z"/>
		</g>
		<g>
			<path class="st3" d="M80.5,110.2c-0.2,0-0.5-0.1-0.6-0.3c-0.2-0.3-0.1-0.8,0.2-1l15.4-10.6c0.3-0.2,0.8-0.1,1,0.2
				c0.2,0.3,0.1,0.8-0.2,1l-15.4,10.6C80.8,110.2,80.6,110.2,80.5,110.2z"/>
		</g>
		<g>
			<path class="st3" d="M83.6,114.7c-0.2,0-0.5-0.1-0.6-0.3c-0.2-0.3-0.1-0.8,0.2-1l15.4-10.6c0.3-0.2,0.8-0.1,1,0.2
				c0.2,0.3,0.1,0.8-0.2,1L84,114.6C83.9,114.7,83.7,114.7,83.6,114.7z"/>
		</g>
		<g>
			<path class="st3" d="M86.7,119.2c-0.2,0-0.5-0.1-0.6-0.3c-0.2-0.3-0.1-0.8,0.2-1l15.4-10.6c0.3-0.2,0.8-0.1,1,0.2
				c0.2,0.3,0.1,0.8-0.2,1l-15.4,10.6C87,119.2,86.8,119.2,86.7,119.2z"/>
		</g>
		<g>
			<path class="st3" d="M89.8,123.7c-0.2,0-0.5-0.1-0.6-0.3c-0.2-0.3-0.1-0.8,0.2-1l15.4-10.6c0.3-0.2,0.8-0.1,1,0.2
				c0.2,0.3,0.1,0.8-0.2,1l-15.4,10.6C90.1,123.7,89.9,123.7,89.8,123.7z"/>
		</g>
		<g>
			<path class="st6" d="M44.5,121.6c-0.2,0-0.5-0.1-0.6-0.3c-0.2-0.3-0.1-0.8,0.2-1l10.6-7.3c0.3-0.2,0.8-0.1,1,0.2
				c0.2,0.3,0.1,0.8-0.2,1L45,121.5C44.8,121.6,44.7,121.6,44.5,121.6z"/>
		</g>
		<g>
			<path class="st6" d="M47.6,126.1c-0.2,0-0.5-0.1-0.6-0.3c-0.2-0.3-0.1-0.8,0.2-1l18.7-12.9c0.3-0.2,0.8-0.1,1,0.2
				c0.2,0.3,0.1,0.8-0.2,1L48,126C47.9,126.1,47.8,126.1,47.6,126.1z"/>
		</g>
		<g>
			<path class="st6" d="M50.4,130.2c-0.2,0-0.5-0.1-0.6-0.3c-0.2-0.3-0.1-0.8,0.2-1l10.6-7.3c0.3-0.2,0.8-0.1,1,0.2
				c0.2,0.3,0.1,0.8-0.2,1l-10.6,7.3C50.7,130.2,50.6,130.2,50.4,130.2z"/>
		</g>
		<g>
			<path class="st6" d="M53.5,134.7c-0.2,0-0.5-0.1-0.6-0.3c-0.2-0.3-0.1-0.8,0.2-1l18.7-12.9c0.3-0.2,0.8-0.1,1,0.2
				c0.2,0.3,0.1,0.8-0.2,1L54,134.6C53.8,134.7,53.7,134.7,53.5,134.7z"/>
		</g>
		<g>
			<g>
				<path class="st7" d="M33,129.3c4.9,0,9.8,2.4,12.8,6.7c4.8,7,3,16.7-4,21.5c-2.7,1.8-5.7,2.7-8.7,2.7c-4.9,0-9.8-2.4-12.8-6.7
					c-4.8-7-3-16.7,4-21.5C26.9,130.1,30,129.3,33,129.3L33,129.3z M33,127.8v1.5V127.8L33,127.8c-3.4,0-6.8,1-9.6,3
					c-7.7,5.3-9.7,15.9-4.4,23.6c3.2,4.6,8.4,7.4,14,7.4c3.4,0,6.7-1,9.6-3c3.7-2.6,6.3-6.4,7.1-10.9c0.8-4.5-0.1-9-2.7-12.7
					C43.8,130.5,38.6,127.8,33,127.8L33,127.8z"/>
			</g>
			<g>
				
					<rect x="32.2" y="128.3" transform="matrix(0.8247 -0.5656 0.5656 0.8247 -76.0781 44.0392)" class="st7" width="1.5" height="32.9"/>
			</g>
			<g>
				
					<rect x="16.6" y="144" transform="matrix(0.8247 -0.5655 0.5655 0.8247 -76.0734 44.0341)" class="st7" width="32.9" height="1.5"/>
			</g>
			<g>
				<path class="st7" d="M39.9,160.3C28,157.1,23.5,149.7,21.7,144c-1.9-6.1-0.9-11.3-0.9-11.5l1.5,0.3c0,0.1-0.9,5.1,0.9,10.9
					c2.4,7.6,8.1,12.8,17.1,15.2L39.9,160.3z"/>
			</g>
			<g>
				<path class="st7" d="M45.3,156.6l-1.5-0.2c0.9-9.3-1.8-16.5-8.1-21.4c-4.7-3.7-9.7-4.7-9.8-4.7l0.3-1.5c0.2,0,5.4,1.1,10.4,5
					C41.2,137.5,46.5,144.4,45.3,156.6z"/>
			</g>
			<g>
				<path class="st7" d="M16.7,143.3l-0.1-1.5c0.1,0,13.8-1.4,19.6-13.4l1.4,0.7C31.4,141.9,16.9,143.3,16.7,143.3z"/>
			</g>
			<g>
				<path class="st7" d="M29.9,161.2l-1.4-0.7c6.2-12.8,20.7-14.3,20.8-14.3l0.1,1.5C49.4,147.8,35.7,149.2,29.9,161.2z"/>
			</g>
		</g>
	</g>
	<g>
		<g>
			<polygon class="st7" points="145.4,146.9 148.8,141.7 142.8,141.1 146.3,136 140.3,135.4 143.7,130.2 137.7,129.7 141.2,124.5 
				140.6,124.4 141,124.3 135,123.7 138.5,118.5 132.5,117.9 136,112.8 129.9,112.2 133.4,107.1 127.4,106.5 130.9,101.3 
				130.2,101.3 94.1,117.3 104.4,140.5 114.8,163.7 151.3,147.4 			"/>
		</g>
		<g>
			
				<rect x="45.7" y="118.9" transform="matrix(0.4068 0.9135 -0.9135 0.4068 184.1206 27.1903)" class="st2" width="50.8" height="73"/>
		</g>
		<g>
			<path class="st3" d="M106,126.2c-0.3,0-0.6-0.2-0.7-0.4c-0.2-0.4,0-0.8,0.4-1l9.7-4.3c0.4-0.2,0.8,0,1,0.4c0.2,0.4,0,0.8-0.4,1
				l-9.7,4.3C106.2,126.2,106.1,126.2,106,126.2z"/>
		</g>
		<g>
			<path class="st3" d="M108.2,131.2c-0.3,0-0.6-0.2-0.7-0.4c-0.2-0.4,0-0.8,0.4-1l17.1-7.6c0.4-0.2,0.8,0,1,0.4
				c0.2,0.4,0,0.8-0.4,1l-17.1,7.6C108.4,131.2,108.3,131.2,108.2,131.2z"/>
		</g>
		<g>
			<path class="st3" d="M110.4,136.2c-0.3,0-0.6-0.2-0.7-0.4c-0.2-0.4,0-0.8,0.4-1l17.1-7.6c0.4-0.2,0.8,0,1,0.4
				c0.2,0.4,0,0.8-0.4,1l-17.1,7.6C110.6,136.2,110.5,136.2,110.4,136.2z"/>
		</g>
		<g>
			<path class="st3" d="M112.6,141.2c-0.3,0-0.6-0.2-0.7-0.4c-0.2-0.4,0-0.8,0.4-1l17.1-7.6c0.4-0.2,0.8,0,1,0.4
				c0.2,0.4,0,0.8-0.4,1l-17.1,7.6C112.8,141.1,112.7,141.2,112.6,141.2z"/>
		</g>
		<g>
			<path class="st3" d="M114.9,146.2c-0.3,0-0.6-0.2-0.7-0.4c-0.2-0.4,0-0.8,0.4-1l17.1-7.6c0.4-0.2,0.8,0,1,0.4
				c0.2,0.4,0,0.8-0.4,1l-17.1,7.6C115.1,146.1,115,146.2,114.9,146.2z"/>
		</g>
		<g>
			<path class="st3" d="M117.1,151.2c-0.3,0-0.6-0.2-0.7-0.4c-0.2-0.4,0-0.8,0.4-1l17.1-7.6c0.4-0.2,0.8,0,1,0.4
				c0.2,0.4,0,0.8-0.4,1l-17.1,7.6C117.3,151.1,117.2,151.2,117.1,151.2z"/>
		</g>
		<g>
			<path class="st6" d="M73,140.9c-0.3,0-0.6-0.2-0.7-0.4c-0.2-0.4,0-0.8,0.4-1l11.7-5.2c0.4-0.2,0.8,0,1,0.4c0.2,0.4,0,0.8-0.4,1
				l-11.7,5.2C73.2,140.8,73.1,140.9,73,140.9z"/>
		</g>
		<g>
			<path class="st6" d="M75.2,145.9c-0.3,0-0.6-0.2-0.7-0.4c-0.2-0.4,0-0.8,0.4-1l20.8-9.2c0.4-0.2,0.8,0,1,0.4c0.2,0.4,0,0.8-0.4,1
				l-20.8,9.2C75.4,145.8,75.3,145.9,75.2,145.9z"/>
		</g>
		<g>
			<path class="st6" d="M77.2,150.4c-0.3,0-0.6-0.2-0.7-0.4c-0.2-0.4,0-0.8,0.4-1l11.7-5.2c0.4-0.2,0.8,0,1,0.4c0.2,0.4,0,0.8-0.4,1
				l-11.7,5.2C77.4,150.4,77.3,150.4,77.2,150.4z"/>
		</g>
		<g>
			<path class="st6" d="M79.5,155.4c-0.3,0-0.6-0.2-0.7-0.4c-0.2-0.4,0-0.8,0.4-1l20.8-9.2c0.4-0.2,0.8,0,1,0.4c0.2,0.4,0,0.8-0.4,1
				l-20.8,9.2C79.7,155.4,79.6,155.4,79.5,155.4z"/>
		</g>
		<g>
			<g>
				<path class="st7" d="M57.3,146c5.9,0,11.6,3.4,14.1,9.2c3.5,7.8,0,17-7.8,20.4c-2,0.9-4.2,1.3-6.3,1.3c-5.9,0-11.6-3.4-14.1-9.2
					c-3.5-7.8,0-17,7.8-20.4C53.1,146.5,55.2,146,57.3,146L57.3,146z M57.3,144.5v1.5V144.5c-2.4,0-4.7,0.5-6.9,1.5
					c-8.6,3.8-12.4,13.9-8.6,22.4c2.7,6.1,8.8,10.1,15.5,10.1c2.4,0,4.7-0.5,6.9-1.5c4.1-1.8,7.3-5.2,8.9-9.4
					c1.6-4.2,1.5-8.8-0.3-13C70.1,148.5,64,144.5,57.3,144.5L57.3,144.5z"/>
			</g>
			<g>
				
					<rect x="56.6" y="145.1" transform="matrix(0.9135 -0.4068 0.4068 0.9135 -60.7532 37.2876)" class="st7" width="1.5" height="32.9"/>
			</g>
			<g>
				
					<rect x="40.9" y="160.8" transform="matrix(0.9136 -0.4067 0.4067 0.9136 -60.7351 37.2704)" class="st7" width="32.9" height="1.5"/>
			</g>
			<g>
				<path class="st7" d="M61.2,178.1c-11.1-5.4-14.2-13.4-14.9-19.3c-0.7-6.3,1.1-11.3,1.2-11.5l1.4,0.5l-0.7-0.3l0.7,0.3
					c0,0-1.8,4.9-1.1,10.9c0.9,7.9,5.7,14,14,18.1L61.2,178.1z"/>
			</g>
			<g>
				<path class="st7" d="M67.2,175.4l-1.4-0.4c2.6-8.9,1.2-16.5-4.1-22.6c-4-4.5-8.7-6.4-8.8-6.4l0.5-1.4c0.2,0.1,5.2,2,9.4,6.8
					C66.7,155.9,70.6,163.6,67.2,175.4z"/>
			</g>
			<g>
				<path class="st7" d="M42.9,157.2c-0.8,0-1.3,0-1.3,0l0.1-1.5c0.1,0,13.8,1.1,21.7-9.7l1.2,0.9C57.7,156.4,46.6,157.2,42.9,157.2
					z"/>
			</g>
			<g>
				<path class="st7" d="M51.3,177.2l-1.2-0.9C58.5,164.8,73,166,73.1,166l-0.1,1.5C72.9,167.5,59.2,166.4,51.3,177.2z"/>
			</g>
		</g>
	</g>
	<g>
		<g>
			<polygon class="st2" points="155.9,173.8 125.1,172.8 148.2,189 			"/>
		</g>
		<g>
			<polygon class="st3" points="170.4,185.9 177,216 156.9,196.2 			"/>
		</g>
		<g>
			<path class="st2" d="M207.2,96.7l-80.2-13.2c-4.5-0.7-6.7,5.2-2.9,7.6l62.4,38.5L207.2,96.7z"/>
		</g>
		<g>
			<path class="st3" d="M237.2,121.7l27.6,76.5c1.5,4.3-3.9,7.6-7,4.2L208.5,148L237.2,121.7z"/>
		</g>
		<g>
			<path class="st4" d="M250.4,93.3l-4.1,20.5c-0.6,3.1-2.3,5.9-4.8,7.9l-80.2,72.4c-2.9,2.6-7.3,2.8-10.3,0.3
				c-3-2.5-3.7-6.8-1.6-10.1l56.7-92c1.5-2.8,3.9-5,6.9-6.1l19.4-7.7c5.1-2,10.3-0.7,13.9,2.4C249.5,83.7,251.4,88.3,250.4,93.3z"/>
		</g>
		<g>
			<path class="st5" d="M250.4,93.3l-4.1,20.5c-0.6,3.1-2.3,5.9-4.8,7.9l-80.2,72.4c-2.9,2.6-7.3,2.8-10.3,0.3l95.2-113.7
				C249.5,83.7,251.4,88.3,250.4,93.3z"/>
		</g>
	</g>
</g>
</svg>
