<?xml version="1.0" encoding="utf-8"?>
<!-- Generator: Adobe Illustrator 24.1.1, SVG Export Plug-In . SVG Version: 6.00 Build 0)  -->
<svg version="1.1" id="Layer_1" xmlns="http://www.w3.org/2000/svg" xmlns:xlink="http://www.w3.org/1999/xlink" x="0px" y="0px"
	 viewBox="0 0 162.6 33.2" style="enable-background:new 0 0 162.6 33.2;" xml:space="preserve">
<style type="text/css">
	.st0{fill:#FFFFFF;}
</style>
<path class="st0" d="M113.1,14.4c-1.2,0.1-2.1,0.7-2.8,1.7v10h-3.8V10.7h3.8v0.8c0.2-0.3,0.5-0.5,0.9-0.6c0.3-0.1,0.7-0.2,1.1-0.2
	c0.3,0,0.5,0,0.8,0.1V14.4z"/>
<path class="st0" d="M126.3,26.1h-4.1l-0.7-0.7c-0.8,0.7-1.9,1-3.1,1c-0.9,0-1.8-0.2-2.5-0.6c-0.8-0.4-1.4-1-1.8-1.7
	c-0.4-0.7-0.6-1.7-0.6-2.9c0-1.5,0.3-2.7,1-3.8s1.6-1.6,2.9-1.6c0.2,0,0.4,0,0.5,0c-0.1-0.4-0.2-0.8-0.3-1.2
	c-0.2-0.4-0.4-0.6-0.8-0.6c-0.4,0-0.9,0.3-1.4,1l-1.6-2.2c1-1.5,2.3-2.2,4-2.2c0.9,0,1.6,0.2,2.3,0.6c0.6,0.4,1.1,1.1,1.5,2.1
	L126.3,26.1z M119.8,21.6c0-0.2,0.1-0.4,0.1-0.5c0-0.6-0.2-1-0.6-1.2c-0.4-0.2-0.7-0.2-0.8-0.2c-0.6,0-1,0.2-1.2,0.7
	c-0.1,0.4-0.2,0.7-0.2,0.8c0,0.7,0.2,1.1,0.6,1.2c0.4,0.1,0.7,0.2,0.8,0.2C119.1,22.5,119.6,22.2,119.8,21.6z"/>
<path class="st0" d="M133.5,10.7l-6,15.4l-6.3-15.4l4.3,0l2,4.6l1.6-4.6L133.5,10.7z"/>
<path class="st0" d="M146.1,14.7l-8.1,7c0.7,0.4,1.4,0.6,2.3,0.6c0.7,0,1.4-0.1,2.1-0.4c0.7-0.3,1.4-0.6,2-1.1l-0.5,4.3
	c-1.2,0.9-2.7,1.3-4.3,1.3c-2.1,0-3.9-0.8-5.2-2.3c-1.4-1.6-2.1-3.4-2.1-5.6c0-2.1,0.7-4,2.1-5.6c1.4-1.6,3.1-2.4,5.2-2.4
	c1.4,0,2.7,0.4,3.9,1.1C144.7,12.4,145.6,13.4,146.1,14.7z M140.9,14.6c-0.2-0.2-0.5-0.4-0.9-0.6c-0.4-0.1-0.7-0.2-1-0.2
	c-0.2,0-0.6,0-1,0.1c-0.5,0.1-0.9,0.5-1.4,1.2c-0.5,0.7-0.7,1.5-0.7,2.5c0,0.5,0.1,1,0.3,1.5L140.9,14.6z"/>
<path class="st0" d="M150.9,26.1h-4v-26l4-0.1V26.1z"/>
<path class="st0" d="M162,23.5c-0.5,0.9-1.2,1.6-2.1,2.1c-0.9,0.5-1.8,0.7-2.8,0.7c-0.8,0-1.7-0.3-2.7-0.8c-1-0.5-1.8-1.3-2.4-2.5
	l2.7-2.8c0.2,0.5,0.5,0.9,0.9,1.3s0.9,0.5,1.4,0.5c0.5,0,0.9-0.2,1.1-0.5c0.1-0.2,0.2-0.5,0.2-0.7c0-0.4-0.2-0.7-0.6-1l-3.8-2.1
	c-0.5-0.3-0.8-0.8-1.1-1.3s-0.4-1.1-0.4-1.7c0-0.7,0.2-1.4,0.5-2.1c0.3-0.7,0.8-1.2,1.5-1.6c0.7-0.4,1.4-0.6,2.3-0.6
	c0.8,0,1.5,0.2,2.2,0.7c0.7,0.4,1.2,1,1.5,1.8l-1.9,2.2c0-0.4-0.1-0.7-0.4-1c-0.3-0.3-0.6-0.5-0.9-0.5c-0.3,0-0.5,0.1-0.6,0.3
	c-0.1,0.2-0.2,0.4-0.2,0.6c0,0.3,0.1,0.6,0.4,0.7l3.9,2.1c0.6,0.3,1,0.8,1.3,1.5c0.3,0.7,0.4,1.4,0.4,2.3
	C162.6,22.1,162.4,22.9,162,23.5z"/>
<path class="st0" d="M15.9,5.2l-5.2,2.2v22.4H5.2V9.6l-5.2,2v-5L15.9,0L15.9,5.2z M14.8,4.2l0-2.7L0.9,7.3l0,2.7l5.4-2v13.3l3.3,1.4
	V6.4L14.8,4.2z"/>
<path class="st0" d="M24.8,11.6c0,0.2,0,0.3,0,0.4c0,0.4,0,0.8-0.1,1.2c-0.1,0.4-0.2,0.8-0.4,1.5c-0.4-0.3-1-0.5-1.7-0.7
	c-0.7-0.1-1.4-0.2-2.2-0.2c0.1-0.5,0-0.9-0.3-1.3C19.8,12.1,19.4,12,19,12c-0.3,0-0.6,0.1-0.9,0.3c-0.3,0.2-0.5,0.5-0.7,0.8v12.9
	h-4.5V10.6c0-0.2,0-0.5-0.1-0.8c0-0.3-0.1-0.6-0.1-0.8h4.1v0.5c1.1-0.6,2.3-0.8,3.5-0.8c1.1,0,2.1,0.2,3,0.7
	C24.3,9.8,24.8,10.6,24.8,11.6z M23.4,13.4l0.1-1.1c0-0.8-0.3-1.5-1-2.1c-0.6-0.6-1.4-0.9-2.3-0.9c-0.7,0-1.4,0.1-2,0.4
	c-0.7,0.3-1.3,0.7-1.8,1.2V9.9h-2.1v9l2.1,0.8v-7c0.8-1,1.7-1.4,2.7-1.4c0.5,0,1,0.2,1.5,0.5c0.4,0.3,0.7,0.8,0.9,1.3
	c0.1,0,0.3,0,0.5,0C22.5,13,23,13.2,23.4,13.4z"/>
<path class="st0" d="M38.9,26.1h-9.8c-1.2,0-2.1-0.5-2.8-1.6c-0.7-1.1-1.1-2.3-1.1-3.6c0-1.4,0.5-2.7,1.6-3.8
	c1.1-1.1,2.4-1.7,3.9-1.7c0.8,0,1.6,0.2,2.5,0.7l-1,3.2c-0.1,0-0.3-0.1-0.5-0.1c-0.2-0.1-0.4-0.1-0.7,0c-0.5,0.1-0.9,0.3-1.2,0.6
	c-0.3,0.3-0.5,0.6-0.5,0.9c0,0.4,0.2,0.8,0.5,1.2c0.3,0.4,0.7,0.5,1.2,0.5c0.5,0,1,0,1.6,0c0.6,0,1,0,1.3,0v-8.7
	c-0.1-0.5-0.4-0.8-0.7-1.1c-0.3-0.2-0.7-0.3-1.2-0.3c-0.6,0-1.1,0.2-1.5,0.6c-0.4,0.4-0.7,0.9-0.7,1.5c-0.9-0.5-1.8-0.7-2.7-0.7
	c-0.2,0-0.4,0-0.7,0.1C26.2,14,26,14,25.8,14.1c0.2-1.5,0.8-2.8,1.9-3.9c1-1.1,2.3-1.6,3.7-1.6c3.1,0,5.2,1.1,6.2,3.2
	c0.6,1.3,1,3.7,1,7c0,0.6,0,1.1,0,1.5c-0.1,1.5-0.1,2.4-0.1,2.5c0,0.7,0,1.2,0.1,1.7C38.5,24.9,38.7,25.4,38.9,26.1z M37.5,19.4
	l-0.2-5.8c-0.2-1.2-0.8-2.2-1.9-3c-1.1-0.8-2.3-1.2-3.6-1.2c-1.1,0-2.1,0.4-3.1,1.1c-1,0.7-1.6,1.6-1.9,2.7c0.5,0,0.9,0,1.2,0.1
	c0.3,0,0.6,0.1,1,0.2c0.2-0.7,0.5-1.2,1-1.6c0.5-0.4,1.1-0.6,1.7-0.6c1.4,0,2.3,0.5,2.8,1.6c0.3,0.8,0.5,2,0.5,3.6
	c0,0.3,0,0.6,0,0.9c0,0.3,0,0.5,0,0.7L37.5,19.4z M31.9,16.6c-0.2-0.1-0.5-0.3-0.8-0.3c-0.3-0.1-0.5-0.1-0.8-0.1
	c-1.1,0-2.1,0.5-2.9,1.4l1.4,1.9c0.2-0.4,0.5-0.7,1-1c0.6-0.4,1.1-0.5,1.6-0.4L31.9,16.6z"/>
<path class="st0" d="M53.9,28.2l-3.8,1.4c-0.4-0.5-0.7-1.1-1-1.7c-0.2-0.6-0.3-1.2-0.3-1.9c0-0.7,0-1.7,0-2.9s0-2.6,0-4.2
	s0-3.2,0-4.9c0-0.3-0.1-0.6-0.3-0.9c-0.2-0.3-0.5-0.4-0.8-0.4c-0.6,0-1.1,0-1.6,0s-1.1,0-1.8,0v13.4h-4.5V8.9h8.7
	c1.4,0,2.6,0.6,3.5,1.9c0.9,1.2,1.4,2.5,1.4,4c0,0.3,0,0.5,0,0.6v11.2c0,0.2,0,0.5,0.1,0.8C53.7,27.7,53.8,28,53.9,28.2z M52.1,19.7
	c0-0.4,0-1.1,0.1-2s0.1-1.7,0.1-2.2c0-0.8-0.1-1.5-0.2-2.2c-0.2-0.6-0.4-1.2-0.9-1.8c-0.4-0.5-1-0.9-1.6-1.1S48.4,10,47.6,10h-6.3
	v8.7l2.1,0.9v-8h4.7c0.8,0,1.3,0.5,1.6,1.5c0.2,0.7,0.3,1.5,0.3,2.5l-0.1,2.5L52.1,19.7z"/>
<path class="st0" d="M67.8,33.2h-4.4v-3.6c-1.4-1-2.7-1.9-4.1-2.8c-1.6-1.1-2.7-2.3-3.4-3.4c-1-1.5-1.4-3.2-1.4-5.2
	c0-3.1,0.5-5.3,1.5-6.8C57,9.7,58.7,8.9,61,8.9h6.8V33.2z M66.9,19.7V9.9H61c-1.9,0-3.2,0.6-4,1.9c-0.8,1.3-1.2,3.3-1.2,6l2.2,1.4
	c-0.1-0.6-0.2-1-0.2-1.3c0-0.2,0-0.5,0-0.8c0-1.5,0.1-2.7,0.4-3.6c0.4-1.3,1.1-2,2.2-2h4.4v7L66.9,19.7z M63.4,24.3V12.5h-2.5
	c-0.8,0-1.4,0.5-1.7,1.5c-0.2,0.6-0.3,1.5-0.3,2.7c0,2.7,0.4,4.6,1.1,5.6C60.5,23.1,61.7,23.7,63.4,24.3z"/>
<path class="st0" d="M83.4,26.1h-9.7c-1.3,0-2.4-0.5-3.2-1.5c-0.9-1-1.3-2.2-1.3-3.6V8.2c0-0.4,0-0.7-0.1-1.1c0-0.3-0.2-0.6-0.3-1
	l3.7-1.5c0.3,0.5,0.6,1.1,0.8,1.8c0.2,0.7,0.3,1.3,0.3,2v13.1c0,0.3,0.1,0.6,0.4,0.7c0.3,0.2,0.6,0.3,1,0.3h3.1V8.9h4.4v15.2
	C82.7,24.8,82.9,25.4,83.4,26.1z M72.5,19.5V8.1c-0.1-0.3-0.1-0.6-0.2-0.8C72.1,7,72,6.7,71.7,6.4L70,6.9c0.3,0.5,0.5,0.9,0.5,1.4
	v10.4l1.2,0.8H72.5z M81.2,19.8V9.9h-1.6v9L81.2,19.8z"/>
<path class="st0" d="M88.4,4.9h-4.2v-4h4.2V4.9z M88.4,26.1h-4.2V8.9h4.2V26.1z M87.2,4V1.9h-1.9V4H87.2z M87.2,19.4V10h-1.9v8.4
	L87.2,19.4z"/>
<path class="st0" d="M94.2,26.1h-4.4V0.9h4.4V26.1z M93,19.8V2.6h-2.1v16.2L93,19.8z"/>
<polygon class="st0" points="110.8,5.2 105.6,7.4 105.6,29.8 100,29.8 100,9.6 94.8,11.6 94.8,6.6 110.8,0 "/>
<polygon class="st0" points="109.6,4.2 109.6,1.6 95.7,7.3 95.7,10.1 101.2,8.1 101.2,21.3 104.4,22.8 104.4,6.4 "/>
</svg>
